<svg width="463" height="172" viewBox="0 0 463 172" fill="none" xmlns="http://www.w3.org/2000/svg">
<path d="M259.653 4.92044L284.411 65.941L182.841 103.772L138.214 88.4509L52.2187 93.0719L5.13086 67.1311L44.457 5.00111L75.7424 20.7907L107.028 33.0793L151.445 16.0756L184.369 33.5972L259.653 4.92044Z" fill="#FFFAED" stroke="#FF632F" stroke-width="6.24458" stroke-miterlimit="10" stroke-linecap="round"/>
<path d="M462 85.8246L439.579 54.3886L368.894 76.5495L339.158 47.0641L181.678 103.868L171.635 136.802L197.384 160.48L270.644 128.666L302.271 155.059L438.135 117.227L462 85.8246Z" fill="#FF632F" stroke="#FF632F" stroke-width="1.39952" stroke-miterlimit="10"/>
<path d="M84.6804 39.9086L90.969 40.7608L98.4001 71.6567L91.8212 73.2583L90.4107 66.9292L77.8738 65.2322L74.8727 70.9662L69.0469 67.6859L84.684 39.9122L84.6804 39.9086ZM86.4729 49.0036L80.7904 59.7553L89.0883 60.8793L86.4729 49.0036Z" fill="#FF632F"/>
<path d="M193.141 82.548L186.698 84.9467L175.623 55.2041L182.319 52.7136L202.177 66.7713L195.169 47.931L201.615 45.5323L212.683 75.2749L205.986 77.7654L186.132 63.7114L193.141 82.548Z" fill="#FF632F"/>
<path d="M161.203 83.2899L155.076 80.803L165.508 54.2122L171.632 56.7026L161.203 83.2899ZM170.864 53.9146L168.087 52.7869L166.948 50.0871L168.061 47.3505L170.761 46.2081L173.538 47.3358L174.677 50.0356L173.564 52.7722L170.868 53.9146H170.864Z" fill="#FF632F"/>
<path d="M34.1195 59.7148L27.9961 56.2141L43.7508 28.6645L51.4059 33.0431L47.2221 57.4116L66.0623 41.4218L73.7138 45.7967L57.9591 73.3463L51.8357 69.8457L61.5295 52.8935L45.5654 66.2532L40.3971 63.3036L43.8132 42.7626L34.1195 59.7148Z" fill="#FF632F"/>
<path d="M240.813 58.1685L245.045 62.2017L249.533 62.2531L252.975 60.692L253.857 57.6358L253.769 56.1959L250.889 55.1564L243.469 53.9001L237.61 50.9064L235.832 46.3662L238.422 38.5605L245.981 35.2766L255.106 36.643L257.923 41.3301L252.472 44.8087L250.694 42.1346L246.896 41.5175L243.612 42.6562L242.639 44.9446L243.204 46.3882L244.901 47.211L248.303 47.8722L252.957 48.5665L259.08 51.1745L260.983 55.7661L258.904 64.0273L251.128 68.3508L241.39 68.1047L237.794 64.6187L240.817 58.1611L240.813 58.1685Z" fill="#FF632F"/>
<path d="M126.564 72.4355L129.602 68.9789L129.539 63.9722L136.496 64.042L136.298 70.7164L129.899 77.7801L117.583 79.8592L104.671 71.2123L101.67 58.8443L108.833 48.7575L118.112 45.9731L124.363 48.8236L121.333 55.0351L116.738 52.7577L113.079 53.6393L108.723 59.0647L110.989 67.2635L120.007 73.2509L126.564 72.4355Z" fill="#FF632F"/>
<path d="M136.394 60.8056L129.492 60.5375L130.69 33.1275L137.595 31.6177L137.129 41.7891L151.76 41.5981L152.226 29.5276L159.125 29.7958L157.927 60.8754L151.021 60.611L151.514 47.8941L136.883 48.0851L136.391 60.802L136.394 60.8056Z" fill="#FF632F"/>
<path d="M233.694 63.2559L214.336 66.4921L209.105 35.1884L232.016 31.3571L233.07 37.6605L217.117 40.3273L218.101 46.1972L231.88 43.8941L232.93 50.1974L219.152 52.5006L220.243 59.0243L236.637 56.284L233.702 63.2559H233.694Z" fill="#FF632F"/>
<path d="M325.654 132.203L308.445 138.257L304.684 113.161L309.936 112.353L312.798 131.513L324.023 127.564L325.654 132.203Z" fill="white"/>
<path d="M346.022 125.033L328.846 131.075L325.158 106.494L341.119 100.877L342.75 105.517L331.013 109.649L331.704 114.259L341.842 110.692L343.473 115.332L332.439 119.214L333.199 124.339L344.392 120.401L346.022 125.04V125.033Z" fill="white"/>
<path d="M361.114 110.917L362.124 113.686L364.38 114.079L366.444 111.985L366.374 108.415L363.972 92.2967L369.254 91.4775L371.642 107.46L370.36 114.953L365.081 118.862L359.454 118.899L356.016 112.812L361.103 110.913L361.114 110.917Z" fill="white"/>
<path d="M383.573 85.1556L392.37 85.9417L396.668 94.2801L395.159 104.694L387.448 111.284L378.614 110.476L374.346 102.13L375.837 91.7565L383.573 85.1556ZM386.736 106.398L390.622 102.729L391.309 96.2012L388.837 90.7097L384.322 90.0338L380.396 93.6777L379.731 100.271L382.144 105.708L386.739 106.395L386.736 106.398Z" fill="white"/>
<path d="M412.564 75.2085L417.827 74.4335L419.906 88.2193L418.599 97.1674L411.653 102.765L403.821 102.365L400.107 95.1875L397.922 80.3952L403.175 79.5871L405.118 92.8844L407.138 97.4943L410.874 97.689L414.172 95.0185L414.683 89.5196L412.564 75.2085Z" fill="white"/>
<path d="M425.862 96.4769L422.215 72.3104L431.119 69.2138L437.775 68.6334L441.632 74.0662L440.236 81.1373L438.869 82.1584L445.11 88.1569L440.952 92.1718L434.491 85.4607L433.833 85.9419L429.837 87.3488L431.101 95.6394L425.862 96.4769ZM429.077 82.5148L432.658 81.2548L435.835 78.8452L436.335 76.0792L435.046 74.158L431.596 74.2609L428.081 75.4988L429.077 82.5184V82.5148Z" fill="white"/>
<path d="M199.469 111.637L205.266 112.797L216.344 131.616L211.587 134.33L209.09 129.996L199.906 133.225L199.04 138.709L194.305 137.926L199.469 111.633V111.637ZM202.511 118.26L200.825 128.159L206.9 126.021L202.511 118.26Z" fill="white"/>
<path d="M229.878 100.937L235.146 100.165L237.225 113.951L235.913 122.895L228.975 128.501L221.14 128.097L217.43 120.919L215.24 106.127L220.493 105.319L222.436 118.616L224.453 123.226L228.192 123.424L231.491 120.75L232.001 115.255L229.878 100.937Z" fill="white"/>
<path d="M254.169 110.006L255.179 112.776L257.431 113.169L259.495 111.075L259.429 107.504L257.027 91.3824L262.309 90.5632L264.697 106.549L263.418 114.043L258.136 117.948L252.512 117.984L249.074 111.898L254.162 110.002L254.169 110.006Z" fill="white"/>
<path d="M276.622 84.2413L285.42 85.0274L289.717 93.3657L288.211 103.783L280.497 110.377L271.667 109.565L267.398 101.219L268.882 90.8495L276.622 84.2413ZM279.785 105.488L283.675 101.822L284.358 95.2905L281.89 89.7989L277.371 89.1194L273.448 92.767L272.787 99.3605L275.197 104.801L279.785 105.488Z" fill="white"/>
<path d="M305.618 74.2941L310.878 73.5227L312.957 87.3086L311.653 96.253L304.707 101.858L296.872 101.451L293.162 94.2768L290.973 79.4845L296.225 78.6764L298.176 91.9736L300.193 96.5836L303.925 96.782L307.223 94.1078L307.741 88.6089L305.618 74.2941Z" fill="white"/>
<path d="M318.923 95.5661L315.279 71.4032L324.176 68.3067L330.832 67.7263L334.693 73.1591L333.293 80.2265L331.93 81.2476L338.171 87.2461L334.009 91.261L327.552 84.5499L326.898 85.0311L322.901 86.438L324.158 94.7323L318.92 95.5698L318.923 95.5661ZM322.137 81.6039L325.719 80.3403L328.896 77.9307L329.392 75.1647L328.106 73.2472L324.657 73.3501L321.142 74.588L322.137 81.6039Z" fill="white"/>
<path d="M75.5955 118.256V120.809H69.5493V113.194C69.5493 112.57 69.5052 112.07 69.4244 111.688C69.3399 111.31 69.1893 111.031 68.9689 110.854C68.7485 110.678 68.4289 110.59 68.0065 110.59C67.6024 110.59 67.2131 110.656 66.8421 110.792C66.4711 110.928 66.0744 111.123 65.6556 111.376C65.674 111.527 65.6813 111.677 65.6813 111.82V118.054L67.5033 118.256V120.809H60.3918V118.256L61.5819 118.102V112.978C61.5819 112.768 61.5636 112.562 61.5305 112.36C61.5121 111.956 61.4534 111.626 61.3505 111.372C61.2477 111.119 61.1007 110.924 60.895 110.788C60.693 110.652 60.4065 110.586 60.0391 110.586C59.6498 110.586 59.2714 110.652 58.8968 110.788C58.5258 110.924 58.129 111.108 57.7103 111.347V118.098L58.9225 118.252V120.805H51.6641V118.252L53.6366 118.05V110.943H51.6641V108.39L57.534 107.324V108.996C58.0703 108.507 58.6506 108.125 59.2678 107.846C59.8812 107.567 60.5203 107.405 61.1779 107.354C61.4276 107.339 61.6848 107.339 61.9346 107.354C62.6766 107.372 63.3267 107.537 63.8814 107.846C64.4397 108.158 64.8769 108.625 65.1964 109.249C65.854 108.625 66.5629 108.151 67.3196 107.82C68.08 107.493 68.8624 107.328 69.6742 107.328C70.4345 107.328 71.1141 107.482 71.7128 107.795C72.3116 108.107 72.7781 108.57 73.116 109.187C73.454 109.804 73.6229 110.59 73.6229 111.552V118.054L75.5955 118.256Z" fill="#4B5830"/>
<path d="M92.3138 118.256V120.809H86.8516L86.5762 119.24C85.9333 119.847 85.2244 120.313 84.4383 120.629C83.6522 120.949 82.8661 121.11 82.0727 121.11C80.8752 121.11 79.9128 120.765 79.1892 120.074C78.4655 119.384 78.1019 118.315 78.1019 116.86V110.943H76.2285V108.39L82.1976 107.324V115.773C82.1976 116.449 82.3041 116.959 82.5282 117.316C82.7486 117.668 83.1857 117.848 83.8396 117.848C84.2436 117.848 84.6477 117.771 85.0407 117.621C85.4374 117.466 85.8488 117.257 86.2676 116.989V110.943H84.3942V108.39L90.3376 107.324V118.05L92.3101 118.252L92.3138 118.256Z" fill="#4B5830"/>
<path d="M104.679 116.688C104.679 117.463 104.477 118.19 104.073 118.862C103.669 119.534 103.037 120.082 102.174 120.493C101.315 120.904 100.194 121.11 98.8095 121.11C98.0528 121.11 97.2557 121.044 96.4219 120.908C95.5844 120.772 94.7579 120.556 93.9277 120.251L93.9828 116.482H96.488L96.6129 118.252C96.9178 118.304 97.197 118.344 97.4578 118.377C97.7186 118.41 97.9867 118.429 98.2549 118.429C98.9307 118.429 99.4634 118.307 99.8638 118.061C100.257 117.819 100.459 117.485 100.459 117.062C100.459 116.757 100.349 116.508 100.128 116.302C99.9078 116.096 99.5846 115.909 99.1548 115.733C98.725 115.556 98.1777 115.365 97.5239 115.163C96.9178 114.979 96.3558 114.744 95.8415 114.469C95.3236 114.19 94.9085 113.822 94.5889 113.356C94.2657 112.893 94.1077 112.298 94.1077 111.574C94.1077 110.259 94.5999 109.22 95.5844 108.463C96.5688 107.706 98.0014 107.324 99.8748 107.324C100.631 107.324 101.403 107.383 102.189 107.501C102.971 107.618 103.702 107.798 104.378 108.033L104.25 111.802H101.877L101.748 110.054C101.498 110.002 101.26 109.965 101.043 109.94C100.826 109.914 100.587 109.903 100.334 109.903C99.6434 109.903 99.1218 110.013 98.7654 110.23C98.4128 110.45 98.2328 110.744 98.2328 111.115C98.2328 111.501 98.4459 111.809 98.8646 112.037C99.2871 112.265 99.9887 112.529 100.966 112.834C101.572 113.018 102.156 113.257 102.725 113.543C103.287 113.83 103.757 114.223 104.128 114.719C104.499 115.218 104.683 115.868 104.683 116.68L104.679 116.688Z" fill="#4B5830"/>
<path d="M118.493 120.052C118.122 120.236 117.666 120.412 117.126 120.57C116.59 120.728 116.013 120.86 115.407 120.963C114.801 121.062 114.191 121.114 113.585 121.114C112.204 121.114 110.995 120.831 109.971 120.269C108.942 119.703 108.145 118.903 107.579 117.867C107.017 116.831 106.734 115.619 106.734 114.237C106.734 112.772 107.025 111.523 107.605 110.494C108.189 109.466 108.982 108.683 109.982 108.143C110.984 107.603 112.112 107.332 113.361 107.332C114.522 107.332 115.491 107.545 116.27 107.963C117.045 108.386 117.644 108.952 118.063 109.657C118.485 110.366 118.75 111.167 118.849 112.059C118.948 112.952 118.908 113.863 118.72 114.792C118.349 114.91 117.85 115.001 117.218 115.071C116.586 115.137 115.892 115.185 115.132 115.211C114.375 115.237 113.614 115.248 112.858 115.248C112.101 115.248 111.421 115.233 110.834 115.196C110.948 115.923 111.179 116.497 111.517 116.915C111.855 117.334 112.266 117.632 112.755 117.801C113.247 117.969 113.765 118.054 114.327 118.054C114.933 118.054 115.565 117.995 116.222 117.878C116.884 117.76 117.471 117.617 117.993 117.448L118.5 120.052H118.493ZM113.28 110.109C112.928 110.109 112.579 110.193 112.233 110.362C111.884 110.531 111.583 110.814 111.322 111.207C111.062 111.6 110.882 112.155 110.779 112.864L115.106 112.812C115.176 112.357 115.157 111.923 115.054 111.508C114.955 111.097 114.76 110.759 114.474 110.498C114.187 110.237 113.791 110.109 113.284 110.109H113.28ZM111.385 106.086L112.85 101.914H116.873L114.569 106.086H111.385Z" fill="#4B5830"/>
<path d="M132.713 120.052C132.342 120.236 131.887 120.412 131.347 120.57C130.81 120.728 130.234 120.86 129.628 120.963C129.022 121.062 128.412 121.114 127.806 121.114C126.425 121.114 125.216 120.831 124.191 120.269C123.163 119.703 122.366 118.902 121.8 117.867C121.238 116.831 120.955 115.619 120.955 114.237C120.955 112.772 121.245 111.523 121.826 110.494C122.41 109.466 123.203 108.683 124.202 108.143C125.205 107.603 126.333 107.332 127.582 107.332C128.742 107.332 129.712 107.545 130.491 107.963C131.266 108.386 131.865 108.951 132.283 109.657C132.706 110.366 132.97 111.166 133.07 112.059C133.169 112.952 133.128 113.863 132.941 114.792C132.57 114.91 132.07 115.001 131.439 115.071C130.807 115.137 130.113 115.185 129.352 115.211C128.596 115.236 127.835 115.248 127.078 115.248C126.322 115.248 125.642 115.233 125.054 115.196C125.168 115.923 125.4 116.496 125.738 116.915C126.076 117.334 126.487 117.631 126.976 117.8C127.468 117.969 127.986 118.054 128.548 118.054C129.154 118.054 129.786 117.995 130.443 117.878C131.104 117.76 131.692 117.617 132.214 117.448L132.721 120.052H132.713ZM127.501 110.109C127.148 110.109 126.799 110.193 126.454 110.362C126.105 110.531 125.804 110.814 125.543 111.207C125.282 111.6 125.102 112.155 124.999 112.864L129.326 112.812C129.396 112.357 129.378 111.923 129.275 111.508C129.176 111.097 128.981 110.759 128.695 110.498C128.408 110.237 128.011 110.109 127.505 110.109H127.501Z" fill="#4B5830"/>
<path d="M66.7938 140.296V142.849H61.2067L60.9533 141.482C60.5529 142.022 60.0129 142.437 59.3481 142.72C58.6795 143.007 58.011 143.15 57.3351 143.15C56.7474 143.15 56.1339 143.032 55.5021 142.797C54.8703 142.562 54.2936 142.176 53.7683 141.647C53.2431 141.118 52.817 140.424 52.49 139.576C52.1594 138.724 51.9941 137.68 51.9941 136.45C51.9941 135.201 52.1815 134.132 52.5488 133.236C52.9235 132.343 53.4084 131.612 54.0144 131.046C54.6242 130.481 55.2817 130.058 55.987 129.783C56.6959 129.504 57.4049 129.364 58.1138 129.364C58.6354 129.364 59.113 129.441 59.5574 129.592C59.9946 129.746 60.3913 129.93 60.7439 130.15V127.039H58.7713V124.684L64.8396 123.571V140.09L66.7865 140.292L66.7938 140.296ZM56.1964 136.351C56.1964 137.68 56.4168 138.606 56.8539 139.12C57.291 139.634 57.8567 139.892 58.5509 139.892C59.0579 139.892 59.5023 139.792 59.888 139.587C60.2737 139.381 60.5639 139.183 60.7476 138.977V132.931C60.4794 132.828 60.1782 132.736 59.8513 132.652C59.5207 132.567 59.1938 132.523 58.8742 132.523C58.0477 132.523 57.3975 132.824 56.9163 133.423C56.4351 134.022 56.1964 134.995 56.1964 136.343V136.351Z" fill="#4B5830"/>
<path d="M83.7416 140.296V142.849H78.2794L78.0039 141.28C77.3611 141.886 76.6521 142.353 75.866 142.669C75.08 142.988 74.2939 143.15 73.5004 143.15C72.303 143.15 71.3406 142.805 70.6169 142.114C69.8933 141.423 69.5296 140.355 69.5296 138.9V132.982H67.6562V130.429L73.6253 129.364V137.813C73.6253 138.488 73.7319 138.999 73.9559 139.355C74.1763 139.708 74.6134 139.888 75.2673 139.888C75.6714 139.888 76.0754 139.811 76.4685 139.66C76.8652 139.506 77.2766 139.297 77.6953 139.028V132.982H75.822V130.429L81.7653 129.364V140.09L83.7379 140.292L83.7416 140.296Z" fill="#4B5830"/>
<path d="M103.843 144.568C103.843 146.1 103.208 147.304 101.933 148.171C100.659 149.038 98.9285 149.472 96.7356 149.472C95.3875 149.472 94.2524 149.306 93.3304 148.979C92.4121 148.652 91.7215 148.208 91.2587 147.65C90.7959 147.095 90.5645 146.478 90.5645 145.806C90.5645 145.133 90.7775 144.542 91.1999 144.035C91.6187 143.528 92.1697 143.065 92.8419 142.643C92.4562 142.375 92.144 142.037 91.9052 141.633C91.6664 141.229 91.5489 140.792 91.5489 140.318C91.5489 139.778 91.7105 139.3 92.0301 138.889C92.3533 138.477 92.728 138.125 93.1725 137.838C92.5811 137.453 92.1109 136.942 91.7546 136.321C91.3983 135.697 91.222 134.962 91.222 134.121C91.222 133.056 91.4828 132.178 92.0044 131.476C92.5297 130.778 93.2313 130.249 94.1165 129.897C95.0018 129.54 95.9752 129.364 97.0405 129.364C98.2012 129.364 99.2407 129.577 100.152 129.996L104.2 129.364V132.222H102.352C102.657 132.777 102.808 133.419 102.808 134.143C102.808 135.172 102.547 136.031 102.025 136.722C101.5 137.412 100.791 137.934 99.8983 138.275C99.0057 138.621 98.0286 138.797 96.9633 138.797C96.2727 138.797 95.6336 138.72 95.0422 138.569C94.9614 138.668 94.8916 138.79 94.8402 138.922C94.7887 139.054 94.763 139.194 94.763 139.326C94.763 139.377 94.7704 139.422 94.7887 139.466C94.8071 139.51 94.8218 139.554 94.8402 139.605C94.8732 139.859 95.0055 140.042 95.2295 140.16C95.4573 140.277 95.7328 140.347 96.056 140.362L99.0901 140.487C100.589 140.557 101.761 140.939 102.591 141.636C103.428 142.334 103.843 143.312 103.843 144.557V144.568ZM94.2341 145.049C94.2341 145.622 94.4581 146.081 94.9063 146.426C95.3507 146.772 95.9972 146.944 96.8384 146.944C97.7494 146.944 98.5134 146.779 99.1269 146.452C99.744 146.122 100.053 145.655 100.053 145.049C100.053 144.627 99.924 144.307 99.6705 144.087C99.4171 143.866 99.0277 143.734 98.5061 143.683C98.3041 143.631 98.069 143.605 97.8008 143.605L95.9789 143.48C95.7952 143.48 95.6079 143.473 95.4242 143.455C95.2369 143.44 95.0532 143.422 94.8695 143.403C94.6675 143.624 94.5096 143.866 94.403 144.138C94.2928 144.41 94.2341 144.711 94.2341 145.049ZM96.989 136.222C97.6135 136.222 98.1131 136.038 98.4804 135.667C98.8551 135.296 99.0387 134.789 99.0387 134.15C99.0387 133.493 98.8551 132.979 98.4951 132.608C98.1314 132.237 97.6392 132.046 97.0147 132.027C96.4086 132.027 95.9238 132.218 95.5601 132.597C95.1965 132.979 95.0165 133.485 95.0165 134.128C95.0165 134.771 95.2001 135.278 95.5601 135.66C95.9238 136.038 96.4013 136.229 96.989 136.229V136.222Z" fill="#4B5830"/>
<path d="M117.252 142.092C116.881 142.276 116.426 142.452 115.886 142.61C115.35 142.768 114.773 142.9 114.167 143.003C113.561 143.102 112.951 143.153 112.345 143.153C110.964 143.153 109.755 142.871 108.73 142.309C107.702 141.743 106.905 140.942 106.339 139.906C105.777 138.87 105.494 137.658 105.494 136.277C105.494 134.811 105.784 133.563 106.365 132.534C106.949 131.506 107.742 130.723 108.741 130.183C109.744 129.643 110.872 129.371 112.121 129.371C113.281 129.371 114.251 129.584 115.03 130.003C115.805 130.426 116.404 130.991 116.823 131.697C117.245 132.405 117.509 133.206 117.609 134.099C117.708 134.991 117.667 135.902 117.48 136.832C117.109 136.949 116.609 137.041 115.978 137.111C115.346 137.177 114.652 137.225 113.891 137.251C113.135 137.276 112.374 137.287 111.618 137.287C110.861 137.287 110.181 137.273 109.594 137.236C109.707 137.963 109.939 138.536 110.277 138.955C110.615 139.374 111.026 139.671 111.515 139.84C112.007 140.009 112.525 140.094 113.087 140.094C113.693 140.094 114.325 140.035 114.982 139.917C115.643 139.8 116.231 139.657 116.753 139.488L117.26 142.092H117.252ZM112.04 132.148C111.687 132.148 111.338 132.233 110.993 132.402C110.644 132.571 110.343 132.854 110.082 133.247C109.821 133.64 109.641 134.194 109.538 134.903L113.866 134.852C113.935 134.396 113.917 133.963 113.814 133.548C113.715 133.136 113.52 132.799 113.234 132.538C112.947 132.277 112.547 132.148 112.04 132.148ZM110.145 128.126L111.61 123.953H115.632L113.329 128.126H110.145Z" fill="#4B5830"/>
<path d="M135.87 140.296V142.849H129.824V135.234C129.824 134.308 129.706 133.64 129.467 133.236C129.228 132.832 128.78 132.63 128.126 132.63C127.722 132.63 127.307 132.703 126.889 132.843C126.466 132.986 126.029 133.177 125.574 133.412V140.09L127.37 140.292V142.845H119.527V140.292L121.5 140.09V132.982H119.527V130.429L125.397 129.364V131.057C126.036 130.503 126.727 130.08 127.469 129.794C128.211 129.507 128.975 129.364 129.768 129.364C130.58 129.364 131.293 129.518 131.906 129.831C132.523 130.143 133.008 130.606 133.361 131.223C133.714 131.836 133.894 132.626 133.894 133.588V140.09L135.866 140.292L135.87 140.296Z" fill="#4B5830"/>
<path d="M145.05 140.296V142.849H137.031V140.296L139.004 140.094V132.986H137.031V130.433L143.077 129.368V140.094L145.05 140.296ZM141.105 128.053C140.447 128.053 139.896 127.843 139.448 127.421C139 127.002 138.776 126.488 138.776 125.878C138.776 125.268 139 124.754 139.448 124.324C139.896 123.895 140.447 123.678 141.105 123.678C141.762 123.678 142.31 123.895 142.747 124.324C143.184 124.754 143.408 125.272 143.408 125.878C143.408 126.484 143.184 127.002 142.747 127.421C142.31 127.843 141.759 128.053 141.105 128.053Z" fill="#4B5830"/>
<path d="M158.203 142.092C157.832 142.275 157.377 142.452 156.837 142.61C156.301 142.768 155.724 142.9 155.118 143.003C154.512 143.102 153.902 143.153 153.296 143.153C151.915 143.153 150.706 142.871 149.681 142.309C148.653 141.743 147.856 140.942 147.29 139.906C146.728 138.87 146.445 137.658 146.445 136.277C146.445 134.811 146.735 133.562 147.316 132.534C147.9 131.505 148.693 130.723 149.693 130.183C150.695 129.643 151.823 129.371 153.072 129.371C154.233 129.371 155.202 129.584 155.981 130.003C156.756 130.425 157.355 130.991 157.774 131.696C158.196 132.405 158.461 133.206 158.56 134.099C158.659 134.991 158.619 135.902 158.431 136.832C158.06 136.949 157.561 137.041 156.929 137.111C156.297 137.177 155.603 137.225 154.842 137.25C154.086 137.276 153.325 137.287 152.569 137.287C151.812 137.287 151.132 137.272 150.545 137.236C150.659 137.963 150.89 138.536 151.228 138.955C151.566 139.374 151.977 139.671 152.466 139.84C152.958 140.009 153.476 140.094 154.038 140.094C154.644 140.094 155.276 140.035 155.933 139.917C156.595 139.8 157.182 139.656 157.704 139.487L158.211 142.092H158.203ZM152.991 132.148C152.638 132.148 152.29 132.233 151.944 132.402C151.595 132.571 151.294 132.854 151.033 133.247C150.772 133.64 150.592 134.194 150.49 134.903L154.817 134.852C154.887 134.396 154.868 133.963 154.765 133.548C154.666 133.136 154.471 132.798 154.185 132.538C153.898 132.277 153.498 132.148 152.991 132.148Z" fill="#4B5830"/>
<path d="M59.7377 168.657V171.214H51.4141V168.657L53.3866 168.455V155.026H51.4141V152.473L57.284 151.407V152.8C57.7725 152.48 58.3676 152.168 59.0655 151.863C59.7634 151.558 60.5201 151.407 61.3283 151.407C62.3751 151.407 63.2531 151.69 63.973 152.256C64.693 152.822 65.244 153.615 65.6297 154.633C66.0154 155.654 66.21 156.84 66.21 158.188C66.21 159.353 66.0705 160.337 65.795 161.149C65.5158 161.957 65.1448 162.629 64.682 163.158C64.2155 163.691 63.7085 164.102 63.1612 164.396C62.6176 164.694 62.0666 164.899 61.5193 165.017C60.9719 165.134 60.4797 165.193 60.0426 165.193C59.5026 165.193 59.0214 165.131 58.599 165.002C58.1766 164.877 57.7946 164.705 57.4566 164.484V168.429L59.7377 168.657ZM59.6863 154.57C59.3116 154.57 58.9296 154.622 58.5366 154.724C58.1435 154.824 57.7835 154.945 57.4603 155.077V161.123C57.6954 161.358 58.0039 161.553 58.386 161.704C58.768 161.854 59.1831 161.931 59.6385 161.931C60.1271 161.931 60.5495 161.814 60.9022 161.579C61.2585 161.344 61.5303 160.951 61.7286 160.403C61.9196 159.856 62.0188 159.107 62.0188 158.166C62.0188 156.903 61.8241 155.988 61.4348 155.422C61.0491 154.857 60.465 154.574 59.69 154.574L59.6863 154.57Z" fill="#4B5830"/>
<path d="M75.0375 165.193C73.6894 165.193 72.5103 164.91 71.5075 164.348C70.5047 163.786 69.7259 162.986 69.1676 161.957C68.6129 160.929 68.3301 159.716 68.3301 158.313C68.3301 156.899 68.6056 155.676 69.1529 154.644C69.7002 153.615 70.4753 152.818 71.4818 152.256C72.4882 151.694 73.671 151.407 75.0375 151.407C76.3856 151.407 77.5574 151.694 78.5528 152.267C79.5483 152.84 80.3197 153.644 80.8817 154.684C81.4363 155.72 81.7155 156.939 81.7155 158.339C81.7155 159.738 81.4437 160.954 80.8927 161.983C80.3454 163.011 79.574 163.805 78.5785 164.359C77.5831 164.914 76.404 165.193 75.0375 165.193ZM75.0375 162.082C75.8309 162.082 76.448 161.759 76.8962 161.109C77.3443 160.458 77.5684 159.536 77.5684 158.339C77.5684 157.549 77.4692 156.866 77.2635 156.289C77.0615 155.716 76.775 155.279 76.4076 154.974C76.0329 154.669 75.5775 154.519 75.0412 154.519C74.5012 154.519 74.042 154.673 73.66 154.974C73.2817 155.279 72.9915 155.712 72.7894 156.274C72.5874 156.84 72.4882 157.52 72.4882 158.309C72.4882 159.507 72.7123 160.436 73.1568 161.094C73.6049 161.751 74.233 162.082 75.0448 162.082H75.0375Z" fill="#4B5830"/>
<path d="M91.6557 168.657V171.214H83.332V168.657L85.3046 168.455V155.026H83.332V152.473L89.2019 151.407V152.8C89.6905 152.48 90.2856 152.168 90.9835 151.863C91.6814 151.558 92.4381 151.407 93.2462 151.407C94.2931 151.407 95.171 151.69 95.891 152.256C96.611 152.822 97.1619 153.615 97.5476 154.633C97.9333 155.654 98.128 156.84 98.128 158.188C98.128 159.353 97.9884 160.337 97.7129 161.149C97.4338 161.957 97.0628 162.629 96.5999 163.158C96.1334 163.691 95.6265 164.102 95.0792 164.396C94.5355 164.694 93.9846 164.899 93.4372 165.017C92.8899 165.134 92.3977 165.193 91.9606 165.193C91.4206 165.193 90.9394 165.131 90.517 165.002C90.0945 164.877 89.7125 164.705 89.3746 164.484V168.429L91.6557 168.657ZM91.6043 154.57C91.2296 154.57 90.8476 154.622 90.4545 154.724C90.0615 154.824 89.7015 154.945 89.3783 155.077V161.123C89.6133 161.358 89.9219 161.553 90.3039 161.704C90.6859 161.854 91.101 161.931 91.5565 161.931C92.0451 161.931 92.4675 161.814 92.8201 161.579C93.1764 161.344 93.4483 160.951 93.6466 160.403C93.8376 159.856 93.9368 159.107 93.9368 158.166C93.9368 156.903 93.7421 155.988 93.3527 155.422C92.9671 154.857 92.383 154.574 91.6079 154.574L91.6043 154.57Z" fill="#4B5830"/>
<path d="M115.71 162.335V164.888H110.248L109.973 163.32C109.33 163.926 108.621 164.392 107.835 164.708C107.049 165.028 106.263 165.19 105.469 165.19C104.272 165.19 103.309 164.844 102.586 164.154C101.862 163.463 101.498 162.394 101.498 160.94V155.022H99.625V152.469L105.594 151.404V159.852C105.594 160.528 105.701 161.039 105.925 161.395C106.145 161.748 106.582 161.928 107.236 161.928C107.64 161.928 108.044 161.851 108.437 161.7C108.834 161.546 109.245 161.336 109.664 161.068V155.022H107.791V152.469L113.734 151.404V162.13L115.707 162.332L115.71 162.335Z" fill="#4B5830"/>
<path d="M124.845 162.335V164.888H116.848V162.335L118.795 162.133V149.258H116.822V146.727L122.894 145.615V162.133L124.845 162.335Z" fill="#4B5830"/>
<path d="M139.517 162.335V164.888H134.356L134.054 163.878C133.448 164.282 132.824 164.602 132.181 164.84C131.538 165.075 130.859 165.193 130.131 165.193C128.967 165.193 128.012 164.87 127.259 164.22C126.509 163.569 126.135 162.688 126.135 161.579C126.135 160.297 126.653 159.327 127.689 158.669C128.724 158.012 130.264 157.648 132.306 157.582L133.573 157.531C133.573 157.38 133.562 157.229 133.547 157.086C133.529 156.943 133.511 156.814 133.496 156.697C133.426 156.241 133.309 155.856 133.14 155.547C132.971 155.238 132.732 155.003 132.42 154.853C132.108 154.702 131.7 154.625 131.193 154.625C131.141 154.625 131.097 154.629 131.053 154.636C131.009 154.643 130.965 154.647 130.914 154.647C130.763 154.665 130.59 154.687 130.396 154.713C130.201 154.739 129.988 154.768 129.749 154.801L129.599 156.396H127.296L127.093 152.373C128.104 152.054 129.018 151.815 129.837 151.653C130.657 151.495 131.501 151.415 132.376 151.415C133.592 151.415 134.565 151.58 135.3 151.907C136.031 152.237 136.578 152.759 136.931 153.475C137.283 154.192 137.485 155.125 137.537 156.271C137.537 156.388 137.537 156.513 137.548 156.653C137.559 156.789 137.562 156.921 137.562 157.057V162.141L139.509 162.343L139.517 162.335ZM131.678 162.611C131.997 162.611 132.328 162.567 132.666 162.482C133.004 162.398 133.309 162.287 133.577 162.155V159.727H132.159C131.384 159.746 130.826 159.889 130.491 160.157C130.15 160.425 129.981 160.789 129.981 161.244C129.981 161.7 130.131 162.041 130.425 162.269C130.719 162.497 131.134 162.611 131.678 162.611Z" fill="#4B5830"/>
<path d="M148.695 162.336V164.888H140.676V162.336L142.648 162.134V155.026H140.676V152.473L146.722 151.408V162.134L148.695 162.336ZM144.749 150.093C144.092 150.093 143.541 149.883 143.093 149.461C142.645 149.042 142.421 148.528 142.421 147.918C142.421 147.308 142.645 146.794 143.093 146.364C143.541 145.934 144.092 145.718 144.749 145.718C145.407 145.718 145.954 145.934 146.391 146.364C146.829 146.794 147.053 147.312 147.053 147.918C147.053 148.524 146.829 149.042 146.391 149.461C145.954 149.883 145.403 150.093 144.749 150.093Z" fill="#4B5830"/>
<path d="M158.733 162.335V164.888H149.932V162.335L151.904 162.133V155.025H149.932V152.473L155.802 151.407V153.582C156.389 152.858 157.098 152.307 157.925 151.94C158.751 151.569 159.574 151.393 160.404 151.407L160.279 155.125C159.401 155.125 158.608 155.176 157.903 155.279C157.194 155.378 156.555 155.532 155.982 155.734V162.108L158.733 162.335Z" fill="#4B5830"/>
<path d="M173.506 164.132C173.135 164.315 172.68 164.492 172.14 164.649C171.603 164.807 171.027 164.94 170.421 165.042C169.815 165.142 169.205 165.193 168.599 165.193C167.218 165.193 166.009 164.91 164.984 164.348C163.956 163.783 163.159 162.982 162.593 161.946C162.031 160.91 161.748 159.698 161.748 158.317C161.748 156.851 162.038 155.602 162.619 154.574C163.203 153.545 163.996 152.763 164.995 152.223C165.998 151.683 167.126 151.411 168.375 151.411C169.535 151.411 170.505 151.624 171.284 152.043C172.059 152.465 172.658 153.031 173.076 153.736C173.499 154.445 173.763 155.246 173.863 156.138C173.962 157.031 173.921 157.942 173.734 158.871C173.363 158.989 172.863 159.081 172.232 159.151C171.6 159.217 170.906 159.264 170.145 159.29C169.388 159.316 168.628 159.327 167.871 159.327C167.115 159.327 166.435 159.312 165.847 159.275C165.961 160.003 166.193 160.576 166.531 160.995C166.869 161.413 167.28 161.711 167.769 161.88C168.261 162.049 168.779 162.133 169.341 162.133C169.947 162.133 170.579 162.074 171.236 161.957C171.897 161.839 172.485 161.696 173.007 161.527L173.514 164.132H173.506ZM168.294 154.188C167.941 154.188 167.592 154.272 167.247 154.441C166.898 154.61 166.597 154.893 166.336 155.286C166.075 155.679 165.895 156.234 165.792 156.943L170.119 156.891C170.189 156.436 170.171 156.003 170.068 155.587C169.969 155.176 169.774 154.838 169.488 154.577C169.201 154.317 168.801 154.188 168.294 154.188Z" fill="#4B5830"/>
</svg>
