<?xml version="1.0" encoding="UTF-8"?>
<svg xmlns="http://www.w3.org/2000/svg" width="461.9" height="161.3" version="1.1" viewBox="0 0 461.9 161.3">
  <defs>
    <style>
      .cls-1 {
        fill: #4b5831;
      }

      .cls-2 {
        fill: #fffaed;
        stroke-linecap: round;
        stroke-width: 5.9px;
      }

      .cls-2, .cls-3 {
        stroke: #ff632f;
        stroke-miterlimit: 10;
      }

      .cls-4 {
        fill: #fff;
      }

      .cls-3 {
        stroke-width: 1.3px;
      }

      .cls-3, .cls-5 {
        fill: #ff632f;
      }
    </style>
  </defs>
  <!-- Generator: Adobe Illustrator 28.6.0, SVG Export Plug-In . SVG Version: 1.2.0 Build 709)  -->
  <g>
    <g id="Calque_1">
      <path class="cls-3" d="M461,69.5l-32.9-27.7-33.7,10-25-42.4-142.9,46.9-6.6,39.1,24.2,22.2,27.2-6.5,27.7,33.5,135-39.5,27.1-35.6Z"/>
      <path class="cls-2" d="M243.1,3.8l23.2,57.3-95.4,35.5-41.9-14.4-80.8,4.3L4.1,62.2,41.1,3.8l29.4,14.8,29.4,11.5,41.7-16,30.9,16.5L243.1,3.8Z"/>
      <path class="cls-5" d="M78.8,36.6l5.9.8,7,29-6.2,1.5-1.3-5.9-11.8-1.6-2.8,5.4-5.5-3.1,14.7-26.1h0ZM80.5,45.2l-5.3,10.1,7.8,1.1-2.5-11.2Z"/>
      <path class="cls-5" d="M180.7,76.7l-6.1,2.3-10.4-27.9,6.3-2.3,18.6,13.2-6.6-17.7,6.1-2.3,10.4,27.9-6.3,2.3-18.6-13.2,6.6,17.7Z"/>
      <path class="cls-5" d="M150.7,77.4l-5.8-2.3,9.8-25,5.8,2.3-9.8,25ZM159.8,49.8l-2.6-1.1-1.1-2.5,1-2.6,2.5-1.1,2.6,1.1,1.1,2.5-1,2.6-2.5,1.1h0Z"/>
      <path class="cls-5" d="M31.4,55.2l-5.8-3.3,14.8-25.9,7.2,4.1-3.9,22.9,17.7-15,7.2,4.1-14.8,25.9-5.7-3.3,9.1-15.9-15,12.5-4.9-2.8,3.2-19.3-9.1,15.9Z"/>
      <path class="cls-5" d="M225.5,53.8l4,3.8h4.2s3.2-1.4,3.2-1.4l.8-2.9v-1.4c0,0-2.8-1-2.8-1l-7-1.2-5.5-2.8-1.7-4.3,2.4-7.3,7.1-3.1,8.6,1.3,2.6,4.4-5.1,3.3-1.7-2.5-3.6-.6-3.1,1.1-.9,2.1.5,1.4,1.6.8,3.2.6,4.4.7,5.7,2.4,1.8,4.3-2,7.8-7.3,4.1-9.1-.2-3.4-3.3,2.8-6.1h0Z"/>
      <path class="cls-5" d="M118.2,67.2l2.9-3.2v-4.7c0,0,6.5,0,6.5,0l-.2,6.3-6,6.6-11.6,2-12.1-8.1-2.8-11.6,6.7-9.5,8.7-2.6,5.9,2.7-2.8,5.8-4.3-2.1-3.4.8-4.1,5.1,2.1,7.7,8.5,5.6,6.2-.8Z"/>
      <path class="cls-5" d="M127.4,56.2l-6.5-.3,1.1-25.7,6.5-1.4-.4,9.6,13.7-.2.4-11.3,6.5.3-1.1,29.2-6.5-.2.5-11.9-13.7.2-.5,11.9h0Z"/>
      <path class="cls-5" d="M218.8,58.5l-18.2,3-4.9-29.4,21.5-3.6,1,5.9-15,2.5.9,5.5,12.9-2.2,1,5.9-12.9,2.2,1,6.1,15.4-2.6-2.8,6.5h0Z"/>
      <path class="cls-4" d="M317.1,122l-16.2,5.7-3.5-23.6,4.9-.8,2.7,18,10.5-3.7,1.5,4.4Z"/>
      <path class="cls-4" d="M336.2,115.3l-16.1,5.7-3.5-23.1,15-5.3,1.5,4.4-11,3.9.6,4.3,9.5-3.3,1.5,4.4-10.4,3.6.7,4.8,10.5-3.7,1.5,4.4h0Z"/>
      <path class="cls-4" d="M350.4,102l.9,2.6,2.1.4,1.9-2v-3.4c0,0-2.3-15.1-2.3-15.1l5-.8,2.2,15-1.2,7-5,3.7h-5.3s-3.2-5.7-3.2-5.7l4.8-1.8h0Z"/>
      <path class="cls-4" d="M371.5,77.8l8.3.7,4,7.8-1.4,9.8-7.2,6.2-8.3-.8-4-7.8,1.4-9.7,7.3-6.2ZM374.5,97.8l3.7-3.4.6-6.1-2.3-5.2-4.2-.6-3.7,3.4-.6,6.2,2.3,5.1,4.3.6h0Z"/>
      <path class="cls-4" d="M398.7,68.5l4.9-.7,2,12.9-1.2,8.4-6.5,5.3-7.4-.4-3.5-6.7-2.1-13.9,4.9-.8,1.8,12.5,1.9,4.3,3.5.2,3.1-2.5.5-5.2-2-13.4Z"/>
      <path class="cls-4" d="M411.2,88.5l-3.4-22.7,8.4-2.9,6.2-.5,3.6,5.1-1.3,6.6-1.3,1,5.9,5.6-3.9,3.8-6.1-6.3-.6.5-3.7,1.3,1.2,7.8-4.9.8ZM414.2,75.4l3.4-1.2,3-2.3.5-2.6-1.2-1.8h-3.2c0,0-3.3,1.3-3.3,1.3l.9,6.6h0Z"/>
      <path class="cls-4" d="M245.1,75.3l5.4,1.1,10.4,17.7-4.5,2.5-2.3-4.1-8.6,3-.8,5.1-4.4-.7,4.8-24.7h0ZM247.9,81.5l-1.6,9.3,5.7-2-4.1-7.3Z"/>
      <path class="cls-4" d="M273.6,65.3l4.9-.7,2,12.9-1.2,8.4-6.5,5.3-7.4-.4-3.5-6.7-2.1-13.9,4.9-.8,1.8,12.5,1.9,4.3,3.5.2,3.1-2.5.5-5.2-2-13.4Z"/>
      <path class="cls-4" d="M296.4,73.8l.9,2.6,2.1.4,1.9-2v-3.4c0,0-2.3-15.1-2.3-15.1l5-.8,2.2,15-1.2,7-5,3.7h-5.3s-3.2-5.7-3.2-5.7l4.8-1.8h0Z"/>
      <path class="cls-4" d="M317.5,49.6l8.3.7,4,7.8-1.4,9.8-7.2,6.2-8.3-.8-4-7.8,1.4-9.7,7.3-6.2ZM320.5,69.6l3.7-3.4.6-6.1-2.3-5.2-4.2-.6-3.7,3.4-.6,6.2,2.3,5.1,4.3.6Z"/>
      <path class="cls-4" d="M344.7,40.3l4.9-.7,2,12.9-1.2,8.4-6.5,5.3-7.4-.4-3.5-6.7-2.1-13.9,4.9-.8,1.8,12.5,1.9,4.3,3.5.2,3.1-2.5.5-5.2-2-13.4Z"/>
      <path class="cls-4" d="M357.2,60.2l-3.4-22.7,8.4-2.9,6.3-.5,3.6,5.1-1.3,6.6-1.3,1,5.9,5.6-3.9,3.8-6.1-6.3-.6.5-3.8,1.3,1.2,7.8-4.9.8h0ZM360.2,47.1l3.4-1.2,3-2.3.5-2.6-1.2-1.8h-3.2c0,0-3.3,1.3-3.3,1.3l.9,6.6Z"/>
      <path class="cls-1" d="M52.9,95.6l4.3,10.8,4.4-10.8h5.6v2.3l-1.9.2,1.2,10.7,1.7.2v2.3h-6.6v-2.3l1.3-.2-.7-7.8-3.6,9.1h-3.3l-3.6-9.3-.5,7.9,1.4.2v2.3h-6.5v-2.3l1.7-.2,1.2-10.7-1.8-.2v-2.3h5.7ZM83.2,109v2.3h-4.8l-.2-1.4c-.6.5-1.2.9-1.9,1.2-.7.3-1.4.4-2.1.4-1.1,0-1.9-.3-2.5-.9-.6-.6-1-1.6-1-2.8v-5.2h-1.7v-2.3l5.3-.9v7.5c0,.6,0,1.1.3,1.4.2.3.6.5,1.2.5s.7,0,1.1-.2c.4-.1.7-.3,1.1-.6v-5.3h-1.7v-2.3l5.3-.9v9.5l1.7.2ZM94.1,107.6c0,.7-.2,1.3-.5,1.9-.4.6-.9,1.1-1.7,1.5-.8.4-1.8.5-3,.5s-1.4,0-2.1-.2c-.7-.1-1.5-.3-2.2-.6v-3.3h2.3v1.6c.4,0,.6,0,.8.1.2,0,.5,0,.7,0,.6,0,1.1-.1,1.4-.3.4-.2.5-.5.5-.9s0-.5-.3-.7c-.2-.2-.5-.3-.9-.5-.4-.2-.8-.3-1.4-.5-.5-.2-1-.4-1.5-.6-.4-.3-.8-.6-1.1-1-.3-.4-.4-.9-.4-1.6,0-1.2.4-2.1,1.3-2.7.9-.7,2.1-1,3.8-1s1.3,0,2,.2c.7.1,1.3.3,1.9.5v3.3h-2.2v-1.5c-.3,0-.5,0-.7,0-.2,0-.4,0-.6,0-.6,0-1.1,0-1.4.3-.3.2-.5.5-.5.8s.2.6.6.8c.4.2,1,.4,1.9.7.5.2,1.1.4,1.5.6.5.3.9.6,1.3,1.1.3.4.5,1,.5,1.7ZM106.3,110.6c-.3.2-.7.3-1.2.5-.5.1-1,.2-1.5.3-.5,0-1.1.1-1.6.1-1.2,0-2.3-.2-3.2-.7-.9-.5-1.6-1.2-2.1-2.1-.5-.9-.7-2-.7-3.2s.3-2.4.8-3.3c.5-.9,1.2-1.6,2.1-2.1.9-.5,1.9-.7,3-.7s1.9.2,2.6.6c.7.4,1.2.9,1.6,1.5.4.6.6,1.3.7,2.1,0,.8,0,1.6-.1,2.4-.3.1-.8.2-1.3.2-.6,0-1.2.1-1.8.1-.7,0-1.3,0-2,0s-1.3,0-1.8,0c.1.6.3,1.1.6,1.5.3.4.7.6,1.1.8.4.1.9.2,1.4.2s1.1,0,1.7-.2c.6-.1,1.1-.2,1.6-.4l.4,2.3ZM101.7,101.8c-.3,0-.6,0-.9.2-.3.1-.6.4-.8.8-.2.3-.4.8-.5,1.5h3.8c0-.4,0-.8,0-1.2,0-.4-.3-.7-.5-.9-.3-.2-.6-.4-1.1-.4ZM100.1,98.3l1.3-3.7h3.6l-2,3.7h-2.8ZM118.9,110.6c-.3.2-.7.3-1.2.5-.5.1-1,.2-1.5.3-.5,0-1.1.1-1.6.1-1.2,0-2.3-.2-3.2-.7-.9-.5-1.6-1.2-2.1-2.1-.5-.9-.7-2-.7-3.2s.3-2.4.8-3.3c.5-.9,1.2-1.6,2.1-2.1.9-.5,1.9-.7,3-.7s1.9.2,2.6.6c.7.4,1.2.9,1.6,1.5.4.6.6,1.3.7,2.1,0,.8,0,1.6-.1,2.4-.3.1-.8.2-1.3.2-.6,0-1.2.1-1.8.1-.7,0-1.3,0-2,0s-1.3,0-1.8,0c.1.6.3,1.1.6,1.5.3.4.7.6,1.1.8.4.1.9.2,1.4.2s1.1,0,1.7-.2c.6-.1,1.1-.2,1.6-.4l.4,2.3ZM114.3,101.8c-.3,0-.6,0-.9.2-.3.1-.6.4-.8.8-.2.3-.4.8-.5,1.5h3.8c0-.4,0-.8,0-1.2,0-.4-.3-.7-.5-.9-.3-.2-.6-.4-1.1-.4ZM59.6,131.2v2.3h-4.9l-.2-1.2c-.4.5-.8.8-1.4,1.1-.6.3-1.2.4-1.8.4s-1.1-.1-1.6-.3c-.6-.2-1.1-.5-1.5-1-.5-.5-.8-1.1-1.1-1.8-.3-.8-.4-1.7-.4-2.8s.2-2,.5-2.8c.3-.8.8-1.4,1.3-1.9.5-.5,1.1-.9,1.7-1.1.6-.3,1.3-.4,1.9-.4s.9,0,1.3.2c.4.1.7.3,1.1.5v-2.7h-1.7v-2.1l5.4-1v14.6l1.7.2ZM50.3,127.7c0,1.2.2,2,.6,2.5.4.4.9.7,1.5.7s.8,0,1.2-.3c.3-.2.6-.4.8-.5v-5.3c-.2,0-.5-.2-.8-.2-.3,0-.6-.1-.8-.1-.7,0-1.3.3-1.7.8-.4.5-.6,1.4-.6,2.6ZM71.4,132.8c-.3.2-.7.3-1.2.5-.5.1-1,.2-1.5.3-.5,0-1.1.1-1.6.1-1.2,0-2.3-.2-3.2-.7-.9-.5-1.6-1.2-2.1-2.1-.5-.9-.7-2-.7-3.2s.3-2.4.8-3.3c.5-.9,1.2-1.6,2.1-2.1.9-.5,1.9-.7,3-.7s1.9.2,2.6.6c.7.4,1.2.9,1.6,1.5.4.6.6,1.3.7,2.1,0,.8,0,1.6-.1,2.4-.3.1-.8.2-1.3.2-.6,0-1.2.1-1.8.1-.7,0-1.3,0-2,0s-1.3,0-1.8,0c.1.6.3,1.1.6,1.5.3.4.7.6,1.1.8s.9.2,1.4.2,1.1,0,1.7-.2c.6-.1,1.1-.2,1.6-.4l.4,2.3ZM66.8,124c-.3,0-.6,0-.9.2-.3.1-.6.4-.8.8-.2.3-.4.8-.5,1.5h3.8c0-.4,0-.8,0-1.2,0-.4-.3-.7-.5-.9-.3-.2-.6-.4-1.1-.4ZM85.4,131.2v2.3h-7.1v-2.3l1.7-.2v-11.4h-1.7v-2.2l5.4-1v14.6l1.7.2ZM98.4,131.2v2.3h-4.6l-.3-.9c-.5.4-1.1.6-1.7.8-.6.2-1.2.3-1.8.3-1,0-1.9-.3-2.5-.8-.7-.6-1-1.4-1-2.3s.5-2,1.4-2.6c.9-.6,2.3-.9,4.1-1h1.1c0-.2,0-.3,0-.4,0-.1,0-.3,0-.4,0-.4-.2-.7-.3-1-.1-.3-.4-.5-.6-.6-.3-.1-.6-.2-1.1-.2s0,0-.1,0h-.1c-.1,0-.3,0-.5,0-.2,0-.4,0-.6,0v1.4h-2.2l-.2-3.6c.9-.3,1.7-.5,2.4-.6.7-.1,1.5-.2,2.3-.2s1.9.1,2.6.4c.7.3,1.1.7,1.5,1.4.3.6.5,1.4.5,2.5v.3c0,.1,0,.2,0,.4v4.5l1.7.2ZM91.4,131.5c.3,0,.6,0,.9-.1.3,0,.6-.2.8-.3v-2.1h-1.3c-.7,0-1.2.1-1.5.4-.3.2-.4.6-.4,1s.1.7.4.9c.3.2.6.3,1.1.3ZM125.6,131.2v2.3h-5.3v-6.7c0-.6,0-1-.1-1.3,0-.3-.2-.6-.4-.7-.2-.2-.5-.2-.8-.2s-.7,0-1,.2c-.3.1-.7.3-1.1.5,0,.1,0,.3,0,.4v5.5l1.6.2v2.3h-6.3v-2.3h1.1v-4.6c0-.2,0-.4,0-.6,0-.4,0-.6-.2-.9,0-.2-.2-.4-.4-.5-.2-.1-.4-.2-.8-.2s-.7,0-1,.2c-.3.1-.7.3-1.1.5v6h1.1v2.4h-6.4v-2.3l1.7-.2v-6.3h-1.7v-2.3l5.2-.9v1.5c.5-.4,1-.8,1.5-1,.6-.3,1.1-.4,1.7-.4.2,0,.4,0,.7,0,.7,0,1.2.2,1.7.4.5.3.9.7,1.2,1.2.6-.6,1.2-1,1.9-1.3.7-.3,1.4-.4,2.1-.4s1.3.1,1.8.4c.5.3,1,.7,1.3,1.2.3.5.4,1.2.4,2.1v5.7l1.7.2ZM137.1,132.8c-.3.2-.7.3-1.2.5-.5.1-1,.2-1.5.3-.5,0-1.1.1-1.6.1-1.2,0-2.3-.2-3.2-.7-.9-.5-1.6-1.2-2.1-2.1-.5-.9-.7-2-.7-3.2s.3-2.4.8-3.3c.5-.9,1.2-1.6,2.1-2.1.9-.5,1.9-.7,3-.7s1.9.2,2.6.6c.7.4,1.2.9,1.6,1.5.4.6.6,1.3.7,2.1,0,.8,0,1.6-.1,2.4-.3.1-.8.2-1.3.2-.6,0-1.2.1-1.8.1-.7,0-1.3,0-2,0s-1.3,0-1.8,0c.1.6.3,1.1.6,1.5.3.4.7.6,1.1.8s.9.2,1.4.2,1.1,0,1.7-.2c.6-.1,1.1-.2,1.6-.4l.4,2.3ZM132.5,124c-.3,0-.6,0-.9.2-.3.1-.6.4-.8.8-.2.3-.4.8-.5,1.5h3.8c0-.4,0-.8,0-1.2,0-.4-.3-.7-.5-.9-.3-.2-.6-.4-1.1-.4ZM130.8,120.5l1.3-3.7h3.6l-2,3.7h-2.8ZM149,133.2c-.5.2-1.1.3-1.7.4-.7.1-1.3.2-1.9.2-1.3,0-2.4-.2-3.3-.7-.9-.5-1.6-1.2-2-2.1-.5-.9-.7-2-.7-3.1s.2-2.3.7-3.2c.5-.9,1.2-1.7,2.1-2.2.9-.5,2-.8,3.3-.8s1.1,0,1.7.2c.6,0,1.2.3,1.8.5v4.1h-2.3v-2.1c-.2,0-.3,0-.4,0-.1,0-.2,0-.3,0-1,0-1.6.3-2.1.9-.4.6-.6,1.4-.6,2.5s.2,1.9.7,2.5c.5.6,1.3,1,2.3,1s.7,0,1.2-.1c.4,0,.8-.2,1.3-.3l.4,2.4ZM162.6,131.2v2.3h-4.6l-.3-.9c-.5.4-1.1.6-1.7.8-.6.2-1.2.3-1.8.3-1,0-1.9-.3-2.5-.8-.7-.6-1-1.4-1-2.3s.5-2,1.4-2.6c.9-.6,2.3-.9,4.1-1h1.1c0-.2,0-.3,0-.4,0-.1,0-.3,0-.4,0-.4-.2-.7-.3-1-.1-.3-.4-.5-.6-.6-.3-.1-.6-.2-1.1-.2s0,0-.1,0h-.1c-.1,0-.3,0-.5,0-.2,0-.4,0-.6,0v1.4h-2.2l-.2-3.6c.9-.3,1.7-.5,2.4-.6.7-.1,1.5-.2,2.3-.2s1.9.1,2.6.4c.7.3,1.1.7,1.5,1.4.3.6.5,1.4.5,2.5v.3c0,.1,0,.2,0,.4v4.5l1.7.2ZM155.6,131.5c.3,0,.6,0,.9-.1.3,0,.6-.2.8-.3v-2.1h-1.3c-.7,0-1.2.1-1.5.4-.3.2-.4.6-.4,1s.1.7.4.9c.3.2.6.3,1.1.3ZM178,131.2v2.3h-5.3v-6.7c0-.8-.1-1.4-.3-1.8-.2-.4-.6-.5-1.2-.5s-.7,0-1.1.2c-.4.1-.8.3-1.2.5v5.9l1.6.2v2.3h-6.9v-2.3l1.7-.2v-6.3h-1.7v-2.3l5.2-.9v1.5c.6-.5,1.2-.9,1.8-1.1.7-.3,1.3-.4,2-.4s1.3.1,1.9.4c.6.3,1,.7,1.3,1.2.3.5.5,1.2.5,2.1v5.7l1.7.2ZM182.7,120.4c-.6,0-1.1-.2-1.5-.6-.4-.4-.6-.8-.6-1.4s.2-1,.6-1.4c.4-.4.9-.6,1.5-.6s1.1.2,1.5.6c.4.4.6.8.6,1.4s-.2,1-.6,1.4c-.4.4-.9.6-1.5.6ZM186.2,131.2v2.3h-7.1v-2.3l1.7-.2v-6.3h-1.7v-2.3l5.3-.9v9.5l1.7.2ZM200.4,136.8v2.3h-7.4v-2.3l2.1-.2v-4.1c-.4.4-.8.7-1.4,1-.5.2-1.1.3-1.6.3s-1.1-.1-1.6-.3c-.6-.2-1.1-.5-1.5-1-.5-.5-.8-1.1-1.1-1.8-.3-.8-.4-1.7-.4-2.8s.2-2,.5-2.8c.3-.8.8-1.4,1.3-1.9.5-.5,1.1-.9,1.7-1.1.6-.3,1.3-.4,1.9-.4s1.1,0,1.6.3c.5.2.9.4,1.3.7l.3-.7h2.7v14.8l1.6.2ZM191.1,127.7c0,1.2.2,2,.6,2.5.4.4.9.7,1.5.7s.8,0,1.2-.3c.3-.2.6-.4.8-.5v-5.3c-.2,0-.5-.2-.8-.2-.3,0-.6-.1-.9-.1-.7,0-1.3.3-1.7.8-.4.5-.6,1.4-.6,2.6ZM215,131.2v2.3h-4.8l-.2-1.4c-.6.5-1.2.9-1.9,1.2-.7.3-1.4.4-2.1.4-1.1,0-1.9-.3-2.5-.9-.6-.6-1-1.6-1-2.8v-5.2h-1.7v-2.3l5.3-.9v7.5c0,.6,0,1.1.3,1.4.2.3.6.5,1.2.5s.7,0,1.1-.2c.4-.1.7-.3,1.1-.6v-5.3h-1.7v-2.3l5.3-.9v9.5l1.7.2ZM226.6,132.8c-.3.2-.7.3-1.2.5-.5.1-1,.2-1.5.3-.5,0-1.1.1-1.6.1-1.2,0-2.3-.2-3.2-.7-.9-.5-1.6-1.2-2.1-2.1-.5-.9-.7-2-.7-3.2s.3-2.4.8-3.3c.5-.9,1.2-1.6,2.1-2.1.9-.5,1.9-.7,3-.7s1.9.2,2.6.6c.7.4,1.2.9,1.6,1.5.4.6.6,1.3.7,2.1,0,.8,0,1.6-.1,2.4-.3.1-.8.2-1.3.2-.6,0-1.2.1-1.8.1-.7,0-1.3,0-2,0s-1.3,0-1.8,0c.1.6.3,1.1.6,1.5.3.4.7.6,1.1.8.4.1.9.2,1.4.2s1.1,0,1.7-.2c.6-.1,1.1-.2,1.6-.4l.4,2.3ZM222,124c-.3,0-.6,0-.9.2-.3.1-.6.4-.8.8-.2.3-.4.8-.5,1.5h3.8c0-.4,0-.8,0-1.2,0-.4-.3-.7-.5-.9-.3-.2-.6-.4-1.1-.4ZM53.4,159v2.3h-7.4v-2.3l1.7-.2v-11.9h-1.7v-2.3l5.2-.9v1.2c.4-.3,1-.6,1.6-.8.6-.3,1.3-.4,2-.4s1.7.3,2.3.8c.6.5,1.1,1.2,1.5,2.1.3.9.5,1.9.5,3.1s-.1,1.9-.4,2.6c-.2.7-.6,1.3-1,1.8-.4.5-.8.8-1.3,1.1-.5.3-1,.4-1.5.5-.5.1-.9.2-1.3.2s-.9,0-1.3-.2c-.4-.1-.7-.3-1-.4v3.5l2,.2ZM53.4,146.6c-.3,0-.7,0-1,.1-.3,0-.7.2-.9.3v5.3c.2.2.5.4.8.5.3.1.7.2,1.1.2s.8-.1,1.1-.3c.3-.2.6-.6.7-1,.2-.5.3-1.2.3-2s-.2-1.9-.5-2.4c-.3-.5-.9-.8-1.5-.8ZM67,156c-1.2,0-2.2-.2-3.1-.7-.9-.5-1.6-1.2-2.1-2.1s-.7-2-.7-3.2.2-2.3.7-3.2c.5-.9,1.2-1.6,2.1-2.1.9-.5,1.9-.8,3.2-.8s2.2.3,3.1.8c.9.5,1.6,1.2,2.1,2.1.5.9.7,2,.7,3.2s-.2,2.3-.7,3.2c-.5.9-1.2,1.6-2,2.1-.9.5-1.9.7-3.1.7ZM67,153.2c.7,0,1.2-.3,1.6-.8.4-.6.6-1.4.6-2.5s0-1.3-.3-1.8c-.2-.5-.4-.9-.8-1.2-.3-.3-.7-.4-1.2-.4s-.9.1-1.2.4c-.3.3-.6.7-.8,1.2-.2.5-.3,1.1-.3,1.8,0,1.1.2,1.9.6,2.5.4.6,1,.9,1.7.9ZM81.6,159v2.3h-7.4v-2.3l1.7-.2v-11.9h-1.7v-2.3l5.2-.9v1.2c.4-.3,1-.6,1.6-.8.6-.3,1.3-.4,2-.4s1.7.3,2.3.8c.6.5,1.1,1.2,1.5,2.1.3.9.5,1.9.5,3.1s-.1,1.9-.4,2.6c-.2.7-.6,1.3-1,1.8-.4.5-.8.8-1.3,1.1-.5.3-1,.4-1.5.5-.5.1-.9.2-1.3.2s-.9,0-1.3-.2c-.4-.1-.7-.3-1-.4v3.5l2,.2ZM81.6,146.6c-.3,0-.7,0-1,.1-.3,0-.7.2-.9.3v5.3c.2.2.5.4.8.5.3.1.7.2,1.1.2s.8-.1,1.1-.3c.3-.2.6-.6.7-1,.2-.5.3-1.2.3-2s-.2-1.9-.5-2.4c-.3-.5-.9-.8-1.5-.8ZM102.9,153.4v2.3h-4.8l-.2-1.4c-.6.5-1.2.9-1.9,1.2-.7.3-1.4.4-2.1.4-1.1,0-1.9-.3-2.5-.9-.6-.6-1-1.6-1-2.8v-5.2h-1.7v-2.3l5.3-.9v7.5c0,.6,0,1.1.3,1.4.2.3.6.5,1.2.5s.7,0,1.1-.2c.4-.1.7-.3,1.1-.6v-5.3h-1.7v-2.3l5.3-.9v9.5l1.7.2ZM111,153.4v2.3h-7.1v-2.3l1.7-.2v-11.4h-1.7v-2.2l5.4-1v14.6l1.7.2ZM123.9,153.4v2.3h-4.6l-.3-.9c-.5.4-1.1.6-1.7.8-.6.2-1.2.3-1.8.3-1,0-1.9-.3-2.5-.8-.7-.6-1-1.4-1-2.3s.5-2,1.4-2.6c.9-.6,2.3-.9,4.1-1h1.1c0-.2,0-.3,0-.4,0-.1,0-.3,0-.4,0-.4-.2-.7-.3-1-.1-.3-.4-.5-.6-.6-.3-.1-.6-.2-1.1-.2s0,0-.1,0h-.1c-.1,0-.3,0-.5,0-.2,0-.4,0-.6,0v1.4h-2.2l-.2-3.6c.9-.3,1.7-.5,2.4-.6.7-.1,1.5-.2,2.3-.2s1.9.1,2.6.4c.7.3,1.1.7,1.5,1.4.3.6.5,1.4.5,2.5v.3c0,.1,0,.2,0,.4v4.5l1.7.2ZM117,153.7c.3,0,.6,0,.9-.1.3,0,.6-.2.8-.3v-2.1h-1.3c-.7,0-1.2.1-1.5.4-.3.2-.4.6-.4,1s.1.7.4.9c.3.2.6.3,1.1.3ZM128.5,142.6c-.6,0-1.1-.2-1.5-.6-.4-.4-.6-.8-.6-1.4s.2-1,.6-1.4c.4-.4.9-.6,1.5-.6s1.1.2,1.5.6c.4.4.6.8.6,1.4s-.2,1-.6,1.4c-.4.4-.9.6-1.5.6ZM132,153.4v2.3h-7.1v-2.3l1.7-.2v-6.3h-1.7v-2.3l5.3-.9v9.5l1.7.2ZM140.9,153.4v2.3h-7.8v-2.3l1.7-.2v-6.3h-1.7v-2.3l5.2-.9v1.9c.5-.6,1.1-1.1,1.9-1.5.7-.3,1.5-.5,2.2-.5v3.3c-.9,0-1.6,0-2.2.1-.6,0-1.2.2-1.7.4v5.6l2.4.2ZM154,155c-.3.2-.7.3-1.2.5-.5.1-1,.2-1.5.3-.5,0-1.1.1-1.6.1-1.2,0-2.3-.2-3.2-.7-.9-.5-1.6-1.2-2.1-2.1-.5-.9-.7-2-.7-3.2s.3-2.4.8-3.3c.5-.9,1.2-1.6,2.1-2.1.9-.5,1.9-.7,3-.7s1.9.2,2.6.6c.7.4,1.2.9,1.6,1.5.4.6.6,1.3.7,2.1,0,.8,0,1.6-.1,2.4-.3.1-.8.2-1.3.2-.6,0-1.2.1-1.8.1-.7,0-1.3,0-2,0s-1.3,0-1.8,0c.1.6.3,1.1.6,1.5.3.4.7.6,1.1.8.4.1.9.2,1.4.2s1.1,0,1.7-.2c.6-.1,1.1-.2,1.6-.4l.4,2.3ZM149.4,146.2c-.3,0-.6,0-.9.2-.3.1-.6.4-.8.8-.2.3-.4.8-.5,1.5h3.8c0-.4,0-.8,0-1.2,0-.4-.3-.7-.5-.9-.3-.2-.6-.4-1.1-.4ZM174.4,153.4v2.3h-4.9l-.2-1.2c-.4.5-.8.8-1.4,1.1-.6.3-1.2.4-1.8.4s-1.1-.1-1.6-.3c-.6-.2-1.1-.5-1.5-1-.5-.5-.8-1.1-1.1-1.8-.3-.8-.4-1.7-.4-2.8s.2-2,.5-2.8c.3-.8.8-1.4,1.3-1.9.5-.5,1.1-.9,1.7-1.1.6-.3,1.3-.4,1.9-.4s.9,0,1.3.2c.4.1.7.3,1.1.5v-2.7h-1.7v-2.1l5.4-1v14.6l1.7.2ZM165,150c0,1.2.2,2,.6,2.5.4.4.9.7,1.5.7s.8,0,1.2-.3c.3-.2.6-.4.8-.5v-5.3c-.2,0-.5-.2-.8-.2-.3,0-.6-.1-.8-.1-.7,0-1.3.3-1.7.8-.4.5-.6,1.4-.6,2.6ZM189.4,153.4v2.3h-4.8l-.2-1.4c-.6.5-1.2.9-1.9,1.2-.7.3-1.4.4-2.1.4-1.1,0-1.9-.3-2.5-.9-.6-.6-1-1.6-1-2.8v-5.2h-1.7v-2.3l5.3-.9v7.5c0,.6,0,1.1.3,1.4.2.3.6.5,1.2.5s.7,0,1.1-.2c.4-.1.7-.3,1.1-.6v-5.3h-1.7v-2.3l5.3-.9v9.5l1.7.2ZM208.6,154.8c-.6.4-1.3.7-2.1.9-.8.2-1.7.3-2.5.3s-2.3-.2-3.3-.5c-1-.4-1.8-.9-2.6-1.6-.7-.7-1.3-1.5-1.7-2.5-.4-1-.6-2.1-.6-3.4s.2-2.4.6-3.4c.4-1,1-1.8,1.7-2.5.7-.7,1.6-1.2,2.6-1.6,1-.4,2.1-.6,3.3-.6s1.7.1,2.5.3c.8.2,1.5.5,2.1.8l-.3,4.8h-2.5v-2.5c-.4,0-.6,0-.8-.1-.2,0-.4,0-.7,0-.7,0-1.3,0-1.9.3-.6.2-1.1.5-1.5.8-.4.4-.8.9-1,1.5-.2.6-.4,1.3-.4,2.2s.1,1.6.4,2.3c.2.6.6,1.1,1,1.5.4.4.9.6,1.5.8.6.2,1.2.3,1.9.3s1.1,0,1.8-.2c.7-.1,1.3-.3,1.9-.6l.7,2.8ZM220.7,155c-.3.2-.7.3-1.2.5-.5.1-1,.2-1.5.3-.5,0-1.1.1-1.6.1-1.2,0-2.3-.2-3.2-.7-.9-.5-1.6-1.2-2.1-2.1-.5-.9-.7-2-.7-3.2s.3-2.4.8-3.3c.5-.9,1.2-1.6,2.1-2.1.9-.5,1.9-.7,3-.7s1.9.2,2.6.6c.7.4,1.2.9,1.6,1.5.4.6.6,1.3.7,2.1,0,.8,0,1.6-.1,2.4-.3.1-.8.2-1.3.2-.6,0-1.2.1-1.8.1-.7,0-1.3,0-2,0s-1.3,0-1.8,0c.1.6.3,1.1.6,1.5.3.4.7.6,1.1.8s.9.2,1.4.2,1.1,0,1.7-.2c.6-.1,1.1-.2,1.6-.4l.4,2.3ZM216.1,146.2c-.3,0-.6,0-.9.2-.3.1-.6.4-.8.8-.2.3-.4.8-.5,1.5h3.8c0-.4,0-.8,0-1.2,0-.4-.3-.7-.5-.9-.3-.2-.6-.4-1.1-.4ZM230.5,153.4v2.3h-7.8v-2.3l1.7-.2v-6.3h-1.7v-2.3l5.2-.9v1.9c.5-.6,1.1-1.1,1.9-1.5.7-.3,1.5-.5,2.2-.5v3.3c-.9,0-1.6,0-2.2.1-.6,0-1.2.2-1.7.4v5.6l2.4.2ZM241,153.4v2.3h-7.8v-2.3l1.7-.2v-6.3h-1.7v-2.3l5.2-.9v1.9c.5-.6,1.1-1.1,1.9-1.5.7-.3,1.5-.5,2.2-.5v3.3c-.9,0-1.6,0-2.2.1-.6,0-1.2.2-1.7.4v5.6l2.4.2ZM255.4,153.4v2.3h-4.6l-.3-.9c-.5.4-1.1.6-1.7.8-.6.2-1.2.3-1.8.3-1,0-1.9-.3-2.5-.8-.7-.6-1-1.4-1-2.3s.5-2,1.4-2.6c.9-.6,2.3-.9,4.1-1h1.1c0-.2,0-.3,0-.4,0-.1,0-.3,0-.4,0-.4-.2-.7-.3-1-.1-.3-.4-.5-.6-.6-.3-.1-.6-.2-1.1-.2s0,0-.1,0h-.1c-.1,0-.3,0-.5,0-.2,0-.4,0-.6,0v1.4h-2.2l-.2-3.6c.9-.3,1.7-.5,2.4-.6.7-.1,1.5-.2,2.3-.2s1.9.1,2.6.4c.7.3,1.1.7,1.5,1.4.3.6.5,1.4.5,2.5v.3c0,.1,0,.2,0,.4v4.5l1.7.2ZM248.5,153.7c.3,0,.6,0,.9-.1.3,0,.6-.2.8-.3v-2.1h-1.3c-.7,0-1.2.1-1.5.4-.3.2-.4.6-.4,1s.1.7.4.9c.3.2.6.3,1.1.3ZM269.7,153.4v2.3h-4.9l-.2-1.2c-.4.5-.8.8-1.4,1.1-.6.3-1.2.4-1.8.4s-1.1-.1-1.6-.3c-.6-.2-1.1-.5-1.5-1-.5-.5-.8-1.1-1.1-1.8-.3-.8-.4-1.7-.4-2.8s.2-2,.5-2.8c.3-.8.8-1.4,1.3-1.9.5-.5,1.1-.9,1.7-1.1.6-.3,1.3-.4,1.9-.4s.9,0,1.3.2c.4.1.7.3,1.1.5v-2.7h-1.7v-2.1l5.4-1v14.6l1.7.2ZM260.3,150c0,1.2.2,2,.6,2.5.4.4.9.7,1.5.7s.8,0,1.2-.3c.3-.2.6-.4.8-.5v-5.3c-.2,0-.5-.2-.8-.2-.3,0-.6-.1-.8-.1-.7,0-1.3.3-1.7.8-.4.5-.6,1.4-.6,2.6ZM277,156c-1.2,0-2.2-.2-3.1-.7-.9-.5-1.6-1.2-2.1-2.1-.5-.9-.7-2-.7-3.2s.2-2.3.7-3.2c.5-.9,1.2-1.6,2.1-2.1.9-.5,1.9-.8,3.2-.8s2.2.3,3.1.8c.9.5,1.6,1.2,2.1,2.1.5.9.7,2,.7,3.2s-.2,2.3-.7,3.2c-.5.9-1.2,1.6-2,2.1-.9.5-1.9.7-3.1.7ZM277,153.2c.7,0,1.2-.3,1.6-.8.4-.6.6-1.4.6-2.5s0-1.3-.3-1.8c-.2-.5-.4-.9-.8-1.2-.3-.3-.7-.4-1.2-.4s-.9.1-1.2.4c-.3.3-.6.7-.8,1.2-.2.5-.3,1.1-.3,1.8,0,1.1.2,1.9.6,2.5.4.6,1,.9,1.7.9Z"/>
    </g>
  </g>
</svg>