<svg width="420" height="174" viewBox="0 0 420 174" fill="none" xmlns="http://www.w3.org/2000/svg">
<path d="M264.128 7.67267C269.05 19.8032 271.809 26.6042 276.731 38.7347L289.334 69.7968L185.923 108.312L140.493 92.7137L52.9394 97.4183L5 71.0084" stroke="#FF632F" stroke-width="3.73971"/>
<path d="M264.128 7.67263L289.334 69.7967L185.923 108.312L140.493 92.7137L52.9394 97.4182L5 71.0084L45.0411 4.63599L108.74 36.7863L131.35 28.1307L153.96 19.4752L187.483 37.3136L264.128 7.67263Z" fill="#FFFAED" stroke="#FF632F" stroke-width="6.35751" stroke-miterlimit="10" stroke-linecap="round"/>
<path d="M85.9963 43.2934L92.3987 44.161L99.9641 75.6157L93.2663 77.2462L91.8302 70.8027L79.0666 69.075L76.0113 74.9126L70.0801 71.5731L86 43.2971L85.9963 43.2934ZM87.8213 52.5529L82.0359 63.499L90.4839 64.6434L87.8175 52.5529H87.8213ZM92.7951 29.5275L98.8796 31.0795L93.6066 40.7242L87.7465 39.2208L92.7951 29.5275Z" fill="#FF632F"/>
<path d="M110.663 51.88L123.041 49.812L133.034 58.1066L136.018 70.1747L143.094 72.8149L141.459 78.5629L132.828 75.4701L128.973 80.975L116.527 83.0281L106.523 74.8007L103.4 62.1829L110.655 51.8875L110.663 51.88ZM122.637 72.4971L124.268 66.7491L128.419 67.9533L126.654 62.1194L120.622 56.5808L114.103 57.3437L110.554 62.9159L112.907 70.773L118.973 76.2854L125.554 75.5374L126.721 73.69L122.637 72.4971Z" fill="#FF632F"/>
<path d="M196.409 86.7041L189.849 89.1461L178.574 58.8657L185.392 56.3302L205.609 70.642L198.473 51.4611L205.036 49.019L216.304 79.2995L209.487 81.835L189.274 67.5269L196.409 86.7041Z" fill="#FF632F"/>
<path d="M163.902 87.4593L157.664 84.9276L168.285 57.8558L174.519 60.3913L163.902 87.4593ZM173.734 57.5529L170.906 56.4048L169.747 53.6561L170.88 50.87L173.629 49.707L176.456 50.8551L177.615 53.6037L176.482 56.3898L173.737 57.5529H173.734Z" fill="#FF632F"/>
<path d="M34.5193 63.4579L28.2852 59.8939L44.3248 31.8461L52.1183 36.3038L47.8588 61.1131L67.0398 44.8341L74.8296 49.2881L58.79 77.3359L52.5559 73.772L62.425 56.5132L46.1722 70.1145L40.9104 67.1116L44.3884 46.1991L34.5193 63.4579Z" fill="#FF632F"/>
<path d="M159.24 37.7102L166.357 38.2824L164.371 57.1791L160.048 67.2764L149.584 70.3093L139.738 65.6458L136.963 55.3354L138.979 36.0834L146.133 36.6556L144.173 55.242L145.377 61.5509L150.108 63.776L155.041 62.325L157.281 56.2928L159.24 37.7064V37.7102Z" fill="#FF632F"/>
<path d="M211.568 52.4559L215.933 47.6915L246.086 59.4267L243.599 65.859L237.488 63.3609L228.79 72.856L231.838 78.6974L225.712 81.663L211.568 52.4559ZM220.218 56.2405L225.906 67.2352L231.666 60.9488L220.218 56.2405Z" fill="#FF632F"/>
<path d="M250.715 60.5147L255.379 61.8498L259.451 59.7743L261.815 56.7414L261.164 53.5701L260.401 52.3135L257.316 52.7361L250.031 55.1108L243.333 55.1782L239.582 51.9246L238.229 43.6598L243.49 37.1266L252.365 34.045L257.122 36.9396L253.849 42.6539L250.981 41.0832L247.264 42.3248L244.84 44.9052L245.046 47.4295L246.239 48.4616L248.161 48.4018L251.542 47.3921L256.067 45.8177L262.825 45.2754L266.71 48.5177L268.741 56.947L263.771 64.5237L254.874 68.9066L248.232 66.947L250.715 60.5147Z" fill="#FF632F"/>
<path d="M50.8584 120.085V122.684H44.7028V114.931C44.7028 114.295 44.6579 113.787 44.5756 113.398C44.4896 113.013 44.3363 112.729 44.1119 112.549C43.8875 112.37 43.5622 112.28 43.1321 112.28C42.7207 112.28 42.3243 112.347 41.9466 112.485C41.5689 112.624 41.165 112.822 40.7387 113.08C40.7574 113.233 40.7649 113.387 40.7649 113.533V119.879L42.6198 120.085V122.684H35.3797V120.085L36.5914 119.927V114.711C36.5914 114.497 36.5727 114.288 36.539 114.082C36.5203 113.671 36.4605 113.334 36.3558 113.076C36.251 112.818 36.1015 112.62 35.892 112.482C35.6863 112.343 35.3947 112.276 35.0207 112.276C34.6243 112.276 34.2391 112.343 33.8576 112.482C33.4799 112.62 33.076 112.807 32.6497 113.05V119.924L33.8838 120.081V122.68H26.4941V120.081L28.5024 119.875V112.639H26.4941V110.04L32.4702 108.955V110.657C33.0162 110.159 33.6071 109.77 34.2353 109.486C34.8599 109.202 35.5106 109.037 36.18 108.985C36.4343 108.97 36.6961 108.97 36.9504 108.985C37.7058 109.004 38.3677 109.172 38.9324 109.486C39.5009 109.804 39.9459 110.279 40.2712 110.915C40.9406 110.279 41.6624 109.797 42.4328 109.46C43.2069 109.127 44.0035 108.959 44.8299 108.959C45.6041 108.959 46.2959 109.116 46.9055 109.434C47.5151 109.752 47.99 110.223 48.3341 110.851C48.6781 111.479 48.8501 112.28 48.8501 113.26V119.879L50.8584 120.085Z" fill="#4B5830"/>
<path d="M67.8801 120.085V122.684H62.3191L62.0387 121.087C61.3842 121.704 60.6625 122.179 59.8622 122.5C59.0619 122.826 58.2616 122.99 57.4538 122.99C56.2346 122.99 55.2548 122.639 54.5181 121.936C53.7814 121.233 53.4112 120.144 53.4112 118.663V112.639H51.5039V110.04L57.5809 108.955V117.556C57.5809 118.245 57.6894 118.764 57.9175 119.127C58.1419 119.486 58.5869 119.669 59.2526 119.669C59.664 119.669 60.0753 119.591 60.4755 119.438C60.8794 119.28 61.2982 119.067 61.7245 118.794V112.639H59.8173V110.04L65.8681 108.955V119.875L67.8764 120.081L67.8801 120.085Z" fill="#4B5830"/>
<path d="M80.4696 118.488C80.4696 119.277 80.2639 120.017 79.8525 120.702C79.4412 121.386 78.7979 121.943 77.9191 122.362C77.044 122.781 75.9034 122.99 74.4935 122.99C73.7231 122.99 72.9116 122.923 72.0627 122.785C71.2101 122.646 70.3686 122.426 69.5234 122.115L69.5795 118.278H72.13L72.2572 120.081C72.5676 120.133 72.8518 120.174 73.1173 120.208C73.3828 120.242 73.6558 120.26 73.9288 120.26C74.6169 120.26 75.1592 120.137 75.5668 119.886C75.967 119.64 76.1726 119.299 76.1726 118.869C76.1726 118.559 76.0605 118.304 75.8361 118.095C75.6117 117.886 75.2826 117.695 74.845 117.515C74.4075 117.336 73.8503 117.141 73.1846 116.936C72.5676 116.749 71.9954 116.509 71.4718 116.229C70.9445 115.945 70.5219 115.571 70.1966 115.096C69.8675 114.625 69.7067 114.019 69.7067 113.282C69.7067 111.943 70.2078 110.885 71.21 110.114C72.2123 109.344 73.6708 108.955 75.578 108.955C76.3484 108.955 77.1338 109.015 77.9341 109.135C78.7306 109.254 79.4748 109.438 80.1629 109.677L80.032 113.514H77.6162L77.4853 111.734C77.231 111.681 76.9879 111.644 76.7673 111.618C76.5466 111.592 76.3035 111.58 76.0455 111.58C75.3424 111.58 74.8114 111.693 74.4486 111.913C74.0896 112.138 73.9064 112.437 73.9064 112.815C73.9064 113.207 74.1233 113.521 74.5496 113.753C74.9797 113.985 75.694 114.254 76.6887 114.565C77.3058 114.752 77.9004 114.995 78.48 115.286C79.0522 115.578 79.5309 115.978 79.9086 116.483C80.2863 116.992 80.4733 117.654 80.4733 118.48L80.4696 118.488Z" fill="#4B5830"/>
<path d="M94.5314 121.913C94.1537 122.1 93.6899 122.28 93.1402 122.441C92.5942 122.601 92.0071 122.736 91.39 122.841C90.773 122.942 90.1522 122.994 89.5351 122.994C88.129 122.994 86.8986 122.706 85.8552 122.134C84.8081 121.558 83.9966 120.743 83.4207 119.688C82.8485 118.634 82.5605 117.399 82.5605 115.993C82.5605 114.501 82.856 113.23 83.4469 112.183C84.0415 111.135 84.8493 110.339 85.8665 109.789C86.8874 109.239 88.0355 108.963 89.307 108.963C90.4887 108.963 91.476 109.18 92.2688 109.606C93.0579 110.036 93.6675 110.612 94.0938 111.33C94.5239 112.052 94.7931 112.867 94.8941 113.776C94.9951 114.684 94.954 115.612 94.7632 116.558C94.3855 116.678 93.8769 116.771 93.2337 116.842C92.5905 116.91 91.8837 116.958 91.1095 116.984C90.3392 117.011 89.565 117.022 88.7946 117.022C88.0243 117.022 87.3324 117.007 86.7341 116.969C86.85 117.71 87.0856 118.293 87.4297 118.72C87.7737 119.146 88.1926 119.449 88.6899 119.621C89.1911 119.793 89.7184 119.879 90.2905 119.879C90.9076 119.879 91.5508 119.819 92.2202 119.699C92.8934 119.58 93.4917 119.434 94.0228 119.262L94.5388 121.913H94.5314ZM89.2247 111.794C88.8657 111.794 88.5104 111.88 88.1589 112.052C87.8036 112.224 87.497 112.512 87.2314 112.912C86.9659 113.312 86.7827 113.877 86.678 114.598L91.0834 114.546C91.1544 114.082 91.1357 113.641 91.031 113.218C90.93 112.8 90.7318 112.456 90.4401 112.19C90.1484 111.925 89.7408 111.794 89.2247 111.794Z" fill="#4B5830"/>
<path d="M112.763 120.085V122.684H107.202L106.921 121.087C106.267 121.704 105.545 122.179 104.745 122.5C103.945 122.826 103.144 122.99 102.337 122.99C101.117 122.99 100.138 122.639 99.4009 121.936C98.6642 121.233 98.294 120.144 98.294 118.663V112.639H96.3867V110.04L102.464 108.955V117.556C102.464 118.245 102.572 118.764 102.8 119.127C103.025 119.486 103.47 119.669 104.135 119.669C104.547 119.669 104.958 119.591 105.358 119.438C105.762 119.28 106.181 119.067 106.607 118.794V112.639H104.7V110.04L110.751 108.955V119.875L112.759 120.081L112.763 120.085Z" fill="#4B5830"/>
<path d="M135.245 120.085V122.684H129.557L129.299 121.292C128.891 121.842 128.342 122.265 127.665 122.553C126.984 122.844 126.303 122.99 125.615 122.99C125.017 122.99 124.392 122.871 123.749 122.631C123.106 122.392 122.519 121.999 121.984 121.461C121.449 120.922 121.015 120.215 120.683 119.352C120.346 118.484 120.178 117.422 120.178 116.169C120.178 114.898 120.368 113.809 120.742 112.897C121.124 111.988 121.618 111.244 122.235 110.668C122.855 110.092 123.525 109.662 124.243 109.381C124.965 109.097 125.686 108.955 126.408 108.955C126.939 108.955 127.425 109.034 127.878 109.187C128.323 109.344 128.727 109.531 129.086 109.755V106.588H127.077V104.191L133.256 103.058V119.875L135.238 120.081L135.245 120.085ZM124.456 116.068C124.456 117.422 124.68 118.364 125.125 118.888C125.57 119.411 126.146 119.673 126.853 119.673C127.369 119.673 127.822 119.572 128.214 119.363C128.607 119.153 128.902 118.951 129.089 118.742V112.586C128.816 112.482 128.51 112.388 128.177 112.302C127.84 112.216 127.508 112.171 127.182 112.171C126.341 112.171 125.679 112.478 125.189 113.088C124.699 113.697 124.456 114.688 124.456 116.061V116.068Z" fill="#4B5830"/>
<path d="M150.264 120.084V122.684H145.01L144.703 121.655C144.086 122.067 143.451 122.392 142.796 122.635C142.142 122.874 141.45 122.994 140.709 122.994C139.524 122.994 138.552 122.665 137.785 122.003C137.022 121.341 136.641 120.443 136.641 119.314C136.641 118.009 137.168 117.022 138.223 116.352C139.277 115.683 140.844 115.313 142.923 115.245L144.214 115.193C144.214 115.04 144.202 114.886 144.187 114.74C144.169 114.595 144.15 114.464 144.135 114.344C144.064 113.88 143.944 113.488 143.772 113.173C143.6 112.859 143.357 112.62 143.039 112.467C142.721 112.313 142.306 112.235 141.79 112.235C141.738 112.235 141.693 112.239 141.648 112.246C141.603 112.254 141.558 112.257 141.506 112.257C141.353 112.276 141.177 112.298 140.979 112.325C140.78 112.351 140.564 112.381 140.321 112.414L140.167 114.037H137.822L137.617 109.942C138.645 109.617 139.576 109.374 140.41 109.209C141.244 109.049 142.104 108.966 142.994 108.966C144.232 108.966 145.223 109.135 145.971 109.467C146.715 109.804 147.273 110.335 147.632 111.064C147.991 111.794 148.196 112.743 148.249 113.91C148.249 114.03 148.249 114.157 148.26 114.299C148.271 114.438 148.275 114.572 148.275 114.711V119.886L150.257 120.092L150.264 120.084ZM142.28 120.369C142.605 120.369 142.942 120.324 143.286 120.238C143.63 120.152 143.941 120.04 144.214 119.905V117.433H142.77C141.981 117.452 141.413 117.598 141.072 117.871C140.724 118.144 140.552 118.514 140.552 118.978C140.552 119.441 140.706 119.789 141.005 120.021C141.304 120.253 141.727 120.369 142.28 120.369Z" fill="#4B5830"/>
<path d="M38.7579 144.352C38.3802 144.539 37.9165 144.718 37.3668 144.879C36.8208 145.04 36.2336 145.174 35.6166 145.279C34.9995 145.38 34.3787 145.432 33.7617 145.432C32.3555 145.432 31.1252 145.144 30.0818 144.572C29.0347 143.996 28.2232 143.181 27.6472 142.126C27.0751 141.072 26.7871 139.838 26.7871 138.432C26.7871 136.939 27.0825 135.668 27.6734 134.621C28.268 133.574 29.0758 132.777 30.093 132.227C31.114 131.678 32.262 131.401 33.5335 131.401C34.7153 131.401 35.7026 131.618 36.4954 132.044C37.2845 132.474 37.8941 133.05 38.3204 133.768C38.7504 134.49 39.0197 135.305 39.1207 136.214C39.2216 137.123 39.1805 138.05 38.9898 138.996C38.6121 139.116 38.1035 139.209 37.4602 139.281C36.817 139.348 36.1102 139.396 35.3361 139.423C34.5657 139.449 33.7916 139.46 33.0212 139.46C32.2508 139.46 31.559 139.445 30.9606 139.408C31.0766 140.148 31.3122 140.732 31.6562 141.158C32.0003 141.584 32.4191 141.887 32.9165 142.059C33.4176 142.231 33.9449 142.317 34.5171 142.317C35.1341 142.317 35.7774 142.257 36.4468 142.138C37.1199 142.018 37.7183 141.872 38.2493 141.7L38.7654 144.352H38.7579ZM33.4513 134.232C33.0923 134.232 32.737 134.318 32.3855 134.49C32.0302 134.662 31.7235 134.95 31.458 135.35C31.1925 135.75 31.0092 136.315 30.9045 137.037L35.3099 136.984C35.381 136.521 35.3623 136.079 35.2576 135.657C35.1566 135.238 34.9584 134.894 34.6667 134.628C34.375 134.363 33.9711 134.232 33.455 134.232H33.4513Z" fill="#4B5830"/>
<path d="M57.7102 142.523V145.122H51.5547V137.369C51.5547 136.427 51.435 135.746 51.1919 135.335C50.9488 134.924 50.4926 134.718 49.8269 134.718C49.4156 134.718 48.993 134.793 48.5666 134.935C48.1366 135.081 47.6916 135.275 47.2278 135.515V142.313L49.0566 142.519V145.118H41.0723V142.519L43.0805 142.313V135.077H41.0723V132.478L47.0483 131.393V133.117C47.699 132.553 48.4021 132.123 49.1575 131.831C49.9129 131.539 50.6908 131.393 51.4986 131.393C52.3251 131.393 53.0506 131.55 53.6751 131.868C54.3034 132.186 54.797 132.657 55.156 133.286C55.515 133.91 55.6983 134.714 55.6983 135.694V142.313L57.7065 142.519L57.7102 142.523Z" fill="#4B5830"/>
<path d="M72.1284 146.876C72.1284 148.435 71.4815 149.662 70.1838 150.545C68.8861 151.427 67.1247 151.868 64.8921 151.868C63.5196 151.868 62.364 151.7 61.4254 151.367C60.4905 151.034 59.7874 150.582 59.3162 150.013C58.845 149.449 58.6094 148.821 58.6094 148.136C58.6094 147.452 58.8263 146.85 59.2563 146.334C59.6827 145.818 60.2436 145.346 60.928 144.916C60.5353 144.643 60.2174 144.299 59.9744 143.888C59.7313 143.476 59.6116 143.031 59.6116 142.549C59.6116 141.999 59.7762 141.513 60.1015 141.094C60.4306 140.675 60.8121 140.316 61.2646 140.025C60.6625 139.632 60.1838 139.112 59.821 138.48C59.4583 137.844 59.2788 137.097 59.2788 136.24C59.2788 135.156 59.5443 134.262 60.0753 133.548C60.6101 132.837 61.3244 132.298 62.2257 131.939C63.1269 131.577 64.118 131.397 65.2025 131.397C66.3842 131.397 67.4426 131.614 68.37 132.04L72.4912 131.397V134.307H70.6101C70.9205 134.871 71.0738 135.526 71.0738 136.263C71.0738 137.31 70.8083 138.185 70.2773 138.888C69.7425 139.591 69.0207 140.122 68.112 140.47C67.2032 140.821 66.2085 141.001 65.1239 141.001C64.4209 141.001 63.7702 140.922 63.1681 140.769C63.0858 140.87 63.0148 140.993 62.9624 141.128C62.91 141.263 62.8839 141.405 62.8839 141.539C62.8839 141.592 62.8913 141.637 62.91 141.681C62.9287 141.726 62.9437 141.771 62.9624 141.824C62.9961 142.082 63.1307 142.269 63.3588 142.388C63.5907 142.508 63.8711 142.579 64.2002 142.594L67.2892 142.721C68.815 142.792 70.008 143.181 70.8532 143.892C71.7058 144.602 72.1284 145.597 72.1284 146.865V146.876ZM62.3416 147.366C62.3416 147.949 62.5697 148.417 63.026 148.768C63.4785 149.12 64.1367 149.295 64.9931 149.295C65.9205 149.295 66.6984 149.127 67.3229 148.794C67.9512 148.458 68.2653 147.983 68.2653 147.366C68.2653 146.936 68.1344 146.61 67.8764 146.386C67.6183 146.162 67.2219 146.027 66.6909 145.975C66.4852 145.922 66.2459 145.896 65.9729 145.896L64.118 145.769C63.931 145.769 63.7403 145.761 63.5533 145.743C63.3625 145.728 63.1756 145.709 62.9886 145.69C62.7829 145.915 62.6221 146.162 62.5136 146.438C62.4014 146.715 62.3416 147.022 62.3416 147.366ZM65.1464 138.375C65.7821 138.375 66.2907 138.189 66.6647 137.811C67.0462 137.433 67.2331 136.917 67.2331 136.266C67.2331 135.597 67.0462 135.073 66.6797 134.696C66.3094 134.318 65.8083 134.123 65.1726 134.105C64.5555 134.105 64.0619 134.299 63.6916 134.684C63.3214 135.073 63.1382 135.589 63.1382 136.244C63.1382 136.898 63.3251 137.414 63.6916 137.803C64.0619 138.189 64.548 138.383 65.1464 138.383V138.375Z" fill="#4B5830"/>
<path d="M85.7736 144.352C85.3958 144.539 84.9321 144.718 84.3824 144.879C83.8364 145.04 83.2492 145.174 82.6322 145.279C82.0151 145.38 81.3943 145.432 80.7773 145.432C79.3712 145.432 78.1408 145.144 77.0974 144.572C76.0503 143.996 75.2388 143.181 74.6629 142.126C74.0907 141.072 73.8027 139.838 73.8027 138.432C73.8027 136.939 74.0982 135.668 74.689 134.621C75.2837 133.574 76.0914 132.777 77.1086 132.227C78.1296 131.678 79.2777 131.401 80.5492 131.401C81.7309 131.401 82.7182 131.618 83.511 132.044C84.3001 132.474 84.9097 133.05 85.336 133.768C85.7661 134.49 86.0353 135.305 86.1363 136.214C86.2373 137.123 86.1961 138.05 86.0054 138.996C85.6277 139.116 85.1191 139.209 84.4759 139.281C83.8326 139.348 83.1258 139.396 82.3517 139.423C81.5813 139.449 80.8072 139.46 80.0368 139.46C79.2665 139.46 78.5746 139.445 77.9762 139.408C78.0922 140.148 78.3278 140.732 78.6718 141.158C79.0159 141.584 79.4347 141.887 79.9321 142.059C80.4332 142.231 80.9605 142.317 81.5327 142.317C82.1498 142.317 82.793 142.257 83.4624 142.138C84.1356 142.018 84.7339 141.872 85.265 141.7L85.781 144.352H85.7736ZM80.4669 134.232C80.1079 134.232 79.7526 134.318 79.4011 134.49C79.0458 134.662 78.7392 134.95 78.4736 135.35C78.2081 135.75 78.0249 136.315 77.9202 137.037L82.3255 136.984C82.3966 136.521 82.3779 136.079 82.2732 135.657C82.1722 135.238 81.974 134.894 81.6823 134.628C81.3906 134.363 80.983 134.232 80.4669 134.232Z" fill="#4B5830"/>
<path d="M104.728 142.523V145.122H98.5723V137.369C98.5723 136.427 98.4526 135.746 98.2095 135.335C97.9664 134.924 97.5102 134.718 96.8445 134.718C96.4331 134.718 96.0106 134.793 95.5842 134.935C95.1542 135.081 94.7091 135.275 94.2454 135.515V142.313L96.0741 142.519V145.118H88.0898V142.519L90.0981 142.313V135.077H88.0898V132.478L94.0659 131.393V133.117C94.7166 132.553 95.4197 132.123 96.1751 131.831C96.9305 131.539 97.7084 131.393 98.5162 131.393C99.3426 131.393 100.068 131.55 100.693 131.868C101.321 132.186 101.815 132.657 102.174 133.286C102.533 133.91 102.716 134.714 102.716 135.694V142.313L104.724 142.519L104.728 142.523Z" fill="#4B5830"/>
<path d="M122.419 142.523V145.122H116.263V137.369C116.263 136.427 116.151 135.746 115.916 135.335C115.684 134.924 115.224 134.718 114.536 134.718C114.124 134.718 113.702 134.793 113.272 134.935C112.845 135.081 112.408 135.275 111.959 135.515V142.313L113.784 142.519V145.118H105.8V142.519L107.782 142.313V129.206H105.773V126.629L111.955 125.496V132.964C112.591 132.448 113.268 132.059 113.99 131.794C114.708 131.528 115.459 131.393 116.23 131.393C117.037 131.393 117.759 131.551 118.391 131.868C119.027 132.186 119.528 132.657 119.883 133.286C120.246 133.91 120.429 134.714 120.429 135.694V142.313L122.408 142.519L122.419 142.523Z" fill="#4B5830"/>
<path d="M130.563 145.432C129.191 145.432 127.99 145.144 126.969 144.572C125.948 144 125.155 143.185 124.587 142.138C124.022 141.091 123.734 139.856 123.734 138.428C123.734 136.988 124.015 135.743 124.572 134.692C125.129 133.645 125.918 132.833 126.943 132.261C127.968 131.689 129.172 131.397 130.563 131.397C131.936 131.397 133.129 131.689 134.142 132.272C135.155 132.856 135.941 133.675 136.513 134.733C137.078 135.788 137.362 137.029 137.362 138.454C137.362 139.879 137.085 141.117 136.524 142.164C135.967 143.211 135.182 144.019 134.168 144.583C133.155 145.148 131.954 145.432 130.563 145.432ZM130.563 142.265C131.371 142.265 131.999 141.936 132.455 141.274C132.912 140.612 133.14 139.673 133.14 138.454C133.14 137.65 133.039 136.954 132.829 136.367C132.624 135.784 132.332 135.339 131.958 135.028C131.577 134.718 131.113 134.565 130.567 134.565C130.017 134.565 129.55 134.722 129.161 135.028C128.776 135.339 128.48 135.78 128.274 136.352C128.069 136.928 127.968 137.62 127.968 138.424C127.968 139.643 128.196 140.589 128.648 141.259C129.105 141.928 129.744 142.265 130.571 142.265H130.563Z" fill="#4B5830"/>
<path d="M150.619 144.763C150.039 144.95 149.366 145.111 148.61 145.238C147.855 145.369 147.129 145.432 146.423 145.432C144.912 145.432 143.644 145.144 142.608 144.572C141.58 143.996 140.798 143.185 140.267 142.138C139.732 141.091 139.467 139.89 139.467 138.533C139.467 137.126 139.74 135.885 140.293 134.812C140.839 133.738 141.632 132.901 142.664 132.302C143.696 131.704 144.945 131.401 146.423 131.401C147.077 131.401 147.743 131.457 148.42 131.569C149.097 131.681 149.77 131.876 150.439 132.149L150.286 136.861H147.761L147.604 134.494C147.503 134.475 147.384 134.46 147.257 134.441C147.129 134.426 147.025 134.415 146.935 134.415C145.836 134.415 145.046 134.774 144.564 135.485C144.085 136.195 143.846 137.164 143.846 138.379C143.846 139.58 144.119 140.552 144.672 141.289C145.218 142.025 146.123 142.396 147.376 142.396C147.788 142.396 148.233 142.355 148.715 142.269C149.194 142.183 149.684 142.078 150.185 141.958L150.619 144.763Z" fill="#4B5830"/>
<path d="M166.274 142.523V145.122H161.02L160.713 144.094C160.096 144.505 159.46 144.83 158.806 145.073C158.152 145.313 157.46 145.432 156.719 145.432C155.534 145.432 154.561 145.103 153.795 144.441C153.032 143.779 152.65 142.882 152.65 141.752C152.65 140.447 153.178 139.46 154.232 138.791C155.287 138.121 156.854 137.751 158.933 137.684L160.223 137.631C160.223 137.478 160.212 137.325 160.197 137.179C160.178 137.033 160.16 136.902 160.145 136.782C160.074 136.319 159.954 135.926 159.782 135.612C159.61 135.298 159.367 135.058 159.049 134.905C158.731 134.752 158.316 134.673 157.8 134.673C157.748 134.673 157.703 134.677 157.658 134.684C157.613 134.692 157.568 134.696 157.516 134.696C157.362 134.714 157.187 134.737 156.988 134.763C156.79 134.789 156.573 134.819 156.33 134.853L156.177 136.476H153.832L153.626 132.381C154.655 132.055 155.586 131.812 156.42 131.648C157.254 131.487 158.114 131.405 159.004 131.405C160.242 131.405 161.233 131.573 161.981 131.906C162.725 132.242 163.282 132.773 163.641 133.503C164 134.232 164.206 135.182 164.258 136.349C164.258 136.468 164.258 136.595 164.27 136.738C164.281 136.876 164.285 137.011 164.285 137.149V142.325L166.267 142.53L166.274 142.523ZM158.29 142.807C158.615 142.807 158.952 142.762 159.296 142.676C159.64 142.59 159.95 142.478 160.223 142.343V139.871H158.78C157.991 139.89 157.422 140.036 157.082 140.309C156.734 140.582 156.562 140.952 156.562 141.416C156.562 141.88 156.715 142.227 157.015 142.459C157.314 142.691 157.736 142.807 158.29 142.807Z" fill="#4B5830"/>
<path d="M34.7125 171.397V174H26.2383V171.397L28.2465 171.191V157.519H26.2383V154.92L32.2143 153.835V155.253C32.7117 154.927 33.3176 154.61 34.0281 154.299C34.7386 153.989 35.509 153.835 36.3318 153.835C37.3976 153.835 38.2914 154.123 39.0244 154.699C39.7573 155.275 40.3183 156.083 40.711 157.119C41.1036 158.159 41.3018 159.366 41.3018 160.739C41.3018 161.924 41.1597 162.927 40.8793 163.753C40.595 164.576 40.2173 165.26 39.7461 165.799C39.2712 166.341 38.7551 166.76 38.1979 167.059C37.6444 167.362 37.0834 167.571 36.5262 167.691C35.969 167.811 35.4679 167.871 35.0229 167.871C34.4731 167.871 33.9832 167.807 33.5532 167.676C33.1231 167.549 32.7342 167.373 32.3901 167.149V171.165L34.7087 171.397H34.7125ZM34.6601 157.055C34.2787 157.055 33.8897 157.108 33.4896 157.212C33.0894 157.313 32.7229 157.437 32.3938 157.571V163.727C32.6332 163.966 32.9473 164.165 33.3363 164.318C33.7252 164.471 34.1478 164.55 34.6115 164.55C35.1089 164.55 35.5389 164.43 35.898 164.191C36.2607 163.951 36.5374 163.551 36.7394 162.994C36.9339 162.437 37.0348 161.674 37.0348 160.717C37.0348 159.43 36.8366 158.499 36.4402 157.923C36.0475 157.347 35.4529 157.059 34.6639 157.059L34.6601 157.055Z" fill="#4B5830"/>
<path d="M50.2896 167.871C48.9172 167.871 47.7167 167.583 46.6958 167.01C45.6748 166.438 44.882 165.623 44.3136 164.576C43.7489 163.529 43.4609 162.295 43.4609 160.866C43.4609 159.426 43.7414 158.181 44.2986 157.13C44.8558 156.083 45.6449 155.272 46.6696 154.699C47.6943 154.127 48.8985 153.835 50.2896 153.835C51.6621 153.835 52.8551 154.127 53.8686 154.711C54.882 155.294 55.6674 156.113 56.2395 157.171C56.8042 158.226 57.0884 159.467 57.0884 160.892C57.0884 162.317 56.8117 163.555 56.2508 164.602C55.6935 165.649 54.9082 166.457 53.8947 167.022C52.8813 167.586 51.6808 167.871 50.2896 167.871ZM50.2896 164.703C51.0974 164.703 51.7257 164.374 52.1819 163.712C52.6382 163.05 52.8663 162.111 52.8663 160.892C52.8663 160.088 52.7653 159.393 52.5559 158.806C52.3502 158.222 52.0585 157.777 51.6846 157.467C51.3031 157.156 50.8394 157.003 50.2934 157.003C49.7437 157.003 49.2762 157.16 48.8873 157.467C48.5021 157.777 48.2066 158.218 48.0009 158.791C47.7953 159.366 47.6943 160.058 47.6943 160.862C47.6943 162.082 47.9224 163.028 48.3749 163.697C48.8312 164.366 49.4707 164.703 50.2971 164.703H50.2896Z" fill="#4B5830"/>
<path d="M67.2086 171.397V174H58.7344V171.397L60.7426 171.191V157.519H58.7344V154.92L64.7104 153.835V155.253C65.2078 154.927 65.8136 154.61 66.5242 154.299C67.2347 153.989 68.0051 153.835 68.8279 153.835C69.8937 153.835 70.7875 154.123 71.5204 154.699C72.2534 155.275 72.8144 156.083 73.2071 157.119C73.5997 158.159 73.7979 159.366 73.7979 160.739C73.7979 161.924 73.6558 162.927 73.3753 163.753C73.0911 164.576 72.7134 165.26 72.2422 165.799C71.7673 166.341 71.2512 166.76 70.694 167.059C70.1405 167.362 69.5795 167.571 69.0223 167.691C68.4651 167.811 67.964 167.871 67.519 167.871C66.9692 167.871 66.4793 167.807 66.0493 167.676C65.6192 167.549 65.2303 167.373 64.8862 167.149V171.165L67.2086 171.397ZM67.1562 157.055C66.7748 157.055 66.3858 157.108 65.9857 157.212C65.5855 157.313 65.219 157.437 64.8899 157.571V163.727C65.1293 163.966 65.4434 164.165 65.8323 164.318C66.2213 164.471 66.6439 164.55 67.1076 164.55C67.605 164.55 68.035 164.43 68.394 164.191C68.7568 163.951 69.0335 163.551 69.2355 162.994C69.4299 162.437 69.5309 161.674 69.5309 160.717C69.5309 159.43 69.3327 158.499 68.9363 157.923C68.5436 157.347 67.949 157.059 67.1599 157.059L67.1562 157.055Z" fill="#4B5830"/>
<path d="M91.6985 164.961V167.56H86.1375L85.857 165.963C85.2026 166.58 84.4808 167.055 83.6805 167.377C82.8802 167.702 82.0799 167.867 81.2721 167.867C80.053 167.867 79.0732 167.515 78.3365 166.812C77.5997 166.109 77.2295 165.021 77.2295 163.54V157.515H75.3223V154.916L81.3993 153.832V162.433C81.3993 163.121 81.5077 163.641 81.7359 164.004C81.9603 164.363 82.4053 164.546 83.0709 164.546C83.4823 164.546 83.8937 164.467 84.2938 164.314C84.6977 164.157 85.1166 163.944 85.5429 163.671V157.515H83.6356V154.916L89.6865 153.832V164.752L91.6947 164.957L91.6985 164.961Z" fill="#4B5830"/>
<path d="M100.998 164.961V167.56H92.8563V164.961L94.8383 164.755V151.648H92.8301V149.071L99.0118 147.938V164.755L100.998 164.961Z" fill="#4B5830"/>
<path d="M115.938 164.961V167.56H110.68L110.373 166.532C109.756 166.943 109.121 167.269 108.466 167.512C107.812 167.751 107.12 167.871 106.379 167.871C105.194 167.871 104.222 167.542 103.455 166.88C102.692 166.218 102.311 165.32 102.311 164.191C102.311 162.886 102.838 161.898 103.892 161.229C104.947 160.56 106.514 160.189 108.593 160.122L109.883 160.07C109.883 159.916 109.872 159.763 109.857 159.617C109.839 159.471 109.82 159.34 109.805 159.221C109.734 158.757 109.614 158.364 109.442 158.05C109.27 157.736 109.027 157.497 108.709 157.343C108.391 157.19 107.976 157.112 107.46 157.112C107.408 157.112 107.363 157.115 107.318 157.123C107.273 157.13 107.228 157.134 107.176 157.134C107.023 157.153 106.847 157.175 106.649 157.201C106.45 157.227 106.234 157.257 105.99 157.291L105.837 158.914H103.492L103.287 154.819C104.315 154.494 105.246 154.251 106.08 154.086C106.914 153.925 107.774 153.843 108.664 153.843C109.902 153.843 110.893 154.011 111.641 154.344C112.385 154.681 112.943 155.212 113.302 155.941C113.661 156.67 113.866 157.62 113.919 158.787C113.919 158.907 113.919 159.034 113.93 159.176C113.941 159.314 113.945 159.449 113.945 159.587V164.763L115.931 164.969L115.938 164.961ZM107.954 165.245C108.279 165.245 108.616 165.201 108.96 165.114C109.304 165.028 109.614 164.916 109.887 164.782V162.31H108.444C107.655 162.328 107.086 162.474 106.746 162.747C106.398 163.02 106.226 163.39 106.226 163.854C106.226 164.318 106.379 164.666 106.679 164.898C106.978 165.129 107.4 165.245 107.954 165.245Z" fill="#4B5830"/>
<path d="M126.076 164.961V167.56H117.115V164.961L119.123 164.755V157.519H117.115V154.92L123.091 153.835V156.049C123.69 155.313 124.411 154.752 125.253 154.378C126.094 154 126.932 153.82 127.777 153.835L127.65 157.62C126.756 157.62 125.948 157.672 125.23 157.777C124.509 157.878 123.858 158.035 123.275 158.241V164.729L126.076 164.961Z" fill="#4B5830"/>
<path d="M418.384 112.295L394.36 73.1437L329.581 90.9747L308.283 58.7271L186.447 104.999L176.844 143.289L203.059 167.396L277.644 135.006L309.843 161.872L400.168 132.874L418.384 112.295Z" fill="#FF632F" stroke="#FF632F" stroke-width="1.42483" stroke-miterlimit="10"/>
<path d="M310.805 119.748L316.71 120.922L327.989 140.081L323.146 142.848L320.603 138.432L311.258 141.719L310.368 147.302L305.551 146.513L310.805 119.744V119.748ZM313.909 126.487L312.189 136.569L318.374 134.393L313.909 126.487Z" fill="white"/>
<path d="M339.905 136.409L336.154 111.382L344.026 108.611L353.492 108.465L357.964 116.812L356.51 127.239L348.073 133.536L339.898 136.412L339.905 136.409ZM344.344 129.572L346.491 128.817L351.554 125.429L352.545 118.671L349.453 113.211L344.195 113.854L342.108 114.587L344.344 129.572Z" fill="white"/>
<path d="M368.436 126.917L363.088 127.736L359.322 102.68L364.67 101.857L368.436 126.917Z" fill="white"/>
<path d="M376.643 96.5844L382.544 97.7586L393.823 116.921L388.98 119.688L386.437 115.272L377.092 118.559L376.205 124.142L371.389 123.353L376.643 96.5844ZM379.743 103.323L378.023 113.406L384.208 111.229L379.743 103.323Z" fill="white"/>
<path d="M201.46 145.881L197.705 120.855L205.581 118.084L215.042 117.938L219.515 126.278L218.06 136.708L209.627 143.006L201.452 145.885L201.46 145.881ZM205.903 139.049L208.049 138.294L213.113 134.902L214.107 128.151L211.015 122.688L205.753 123.335L203.67 124.064L205.903 139.049Z" fill="white"/>
<path d="M231.021 108.327L239.978 109.128L244.353 117.617L242.816 128.222L234.966 134.935L225.969 134.109L221.627 125.616L223.142 115.055L231.021 108.327ZM234.241 129.954L238.201 126.222L238.897 119.573L236.38 113.982L231.784 113.29L227.786 117.003L227.109 123.72L229.566 129.255L234.241 129.954Z" fill="white"/>
<path d="M258.665 125.751L254.91 100.728L262.79 97.957L272.251 97.8111L276.724 106.151L275.269 116.581L266.832 122.878L258.657 125.754L258.665 125.751ZM263.104 118.922L265.254 118.166L270.318 114.774L271.309 108.021L268.22 102.561L262.958 103.204L260.871 103.937L263.104 118.922Z" fill="white"/>
<path d="M287.203 116.263L281.856 117.082L278.086 92.0258L283.434 91.2031L287.203 116.263Z" fill="white"/>
<path d="M295.414 85.9264L301.316 87.1044L312.595 106.263L307.752 109.03L305.209 104.614L295.863 107.905L294.977 113.484L290.16 112.688L295.414 85.9264ZM298.515 92.6691L296.794 102.748L302.98 100.571L298.515 92.6691Z" fill="white"/>
</svg>
