<?xml version="1.0" encoding="UTF-8"?>
<svg xmlns="http://www.w3.org/2000/svg" width="417.5" height="174.3" version="1.1" viewBox="0 0 417.5 174.3">
  <defs>
    <style>
      .cls-1 {
        fill: #4b5831;
      }

      .cls-2 {
        fill: #fffaed;
        stroke-linecap: round;
        stroke-width: 6.1px;
      }

      .cls-2, .cls-3 {
        stroke: #ff632f;
        stroke-miterlimit: 10;
      }

      .cls-4 {
        fill: #fff;
      }

      .cls-3 {
        stroke-width: 1.4px;
      }

      .cls-3, .cls-5 {
        fill: #ff632f;
      }
    </style>
  </defs>
  <!-- Generator: Adobe Illustrator 28.6.0, SVG Export Plug-In . SVG Version: 1.2.0 Build 709)  -->
  <g>
    <g id="Calque_1">
      <path class="cls-3" d="M416.7,89.5l-22.9-37.3-61.7,17-20.3-30.7-116,44-9.1,36.5,25,22.9,71-30.8,30.7,25.6,86-27.6,17.3-19.6Z"/>
      <path class="cls-4" d="M314.3,96.6l5.6,1.1,10.7,18.2-4.6,2.6-2.4-4.2-8.9,3.1-.8,5.3-4.6-.8,5-25.5h0ZM317.2,103l-1.6,9.6,5.9-2.1-4.3-7.5Z"/>
      <path class="cls-4" d="M342,112.5l-3.6-23.8,7.5-2.6h9c0-.1,4.3,7.8,4.3,7.8l-1.4,9.9-8,6-7.8,2.7h0ZM346.2,106l2-.7,4.8-3.2.9-6.4-2.9-5.2-5,.6-2,.7,2.1,14.3Z"/>
      <path class="cls-4" d="M369.1,103.4l-5.1.8-3.6-23.9,5.1-.8,3.6,23.9Z"/>
      <path class="cls-4" d="M377,74.6l5.6,1.1,10.7,18.2-4.6,2.6-2.4-4.2-8.9,3.1-.8,5.3-4.6-.8,5-25.5ZM379.9,81l-1.6,9.6,5.9-2.1-4.3-7.5Z"/>
      <path class="cls-4" d="M210.2,121.5l-3.6-23.8,7.5-2.6h9c0-.1,4.3,7.8,4.3,7.8l-1.4,9.9-8,6-7.8,2.7h0ZM214.4,115l2-.7,4.8-3.2.9-6.4-2.9-5.2-5,.6-2,.7,2.1,14.3Z"/>
      <path class="cls-4" d="M238.3,85.7l8.5.8,4.2,8.1-1.5,10.1-7.5,6.4-8.6-.8-4.1-8.1,1.4-10.1,7.5-6.4ZM241.4,106.3l3.8-3.6.7-6.3-2.4-5.3-4.4-.7-3.8,3.5-.6,6.4,2.3,5.3,4.4.7Z"/>
      <path class="cls-4" d="M264.6,102.3l-3.6-23.8,7.5-2.6h9c0-.1,4.3,7.8,4.3,7.8l-1.4,9.9-8,6-7.8,2.7h0ZM268.9,95.8l2-.7,4.8-3.2.9-6.4-2.9-5.2-5,.6-2,.7,2.1,14.3Z"/>
      <path class="cls-4" d="M291.8,93.3l-5.1.8-3.6-23.9,5.1-.8,3.6,23.9Z"/>
      <path class="cls-4" d="M299.6,64.4l5.6,1.1,10.7,18.2-4.6,2.6-2.4-4.2-8.9,3.1-.8,5.3-4.6-.8,5-25.5ZM302.6,70.8l-1.6,9.6,5.9-2.1-4.3-7.5Z"/>
      <path class="cls-1" d="M52.6,107.8l4.4,11,4.4-11h5.7v2.3l-1.9.2,1.2,10.8,1.7.2v2.3h-6.7v-2.3l1.4-.2-.7-7.9-3.6,9.3h-3.4l-3.6-9.4-.5,8,1.4.2v2.3h-6.6v-2.3l1.7-.2,1.2-10.8-1.9-.2v-2.3h5.8ZM83.4,121.4v2.3h-4.9l-.2-1.4c-.6.5-1.2,1-1.9,1.2-.7.3-1.4.4-2.1.4-1.1,0-1.9-.3-2.6-.9-.6-.6-1-1.6-1-2.9v-5.3h-1.7v-2.3l5.3-1v7.6c0,.6,0,1.1.3,1.4.2.3.6.5,1.2.5s.7,0,1.1-.2c.4-.1.7-.3,1.1-.6v-5.4h-1.7v-2.3l5.3-1v9.6l1.8.2ZM94.4,119.9c0,.7-.2,1.3-.5,1.9-.4.6-.9,1.1-1.7,1.5-.8.4-1.8.5-3,.5s-1.4,0-2.2-.2c-.7-.1-1.5-.3-2.2-.6v-3.4h2.3v1.6c.4,0,.6,0,.9.1.2,0,.5,0,.7,0,.6,0,1.1-.1,1.4-.3.4-.2.5-.5.5-.9s0-.5-.3-.7c-.2-.2-.5-.3-.9-.5-.4-.2-.9-.3-1.4-.5-.5-.2-1-.4-1.5-.6-.5-.3-.8-.6-1.1-1-.3-.4-.4-1-.4-1.6,0-1.2.4-2.1,1.3-2.8.9-.7,2.2-1,3.9-1s1.4,0,2.1.2c.7.1,1.4.3,2,.5v3.4h-2.2v-1.6c-.3,0-.6,0-.7,0-.2,0-.4,0-.6,0-.6,0-1.1,0-1.4.3-.3.2-.5.5-.5.8s.2.6.6.8c.4.2,1,.4,1.9.7.5.2,1.1.4,1.6.6.5.3.9.6,1.3,1.1.3.4.5,1,.5,1.7ZM106.8,123c-.3.2-.7.3-1.2.5-.5.1-1,.2-1.5.3-.5,0-1.1.1-1.6.1-1.2,0-2.3-.2-3.2-.7-.9-.5-1.6-1.2-2.2-2.2-.5-.9-.7-2-.7-3.3s.3-2.4.8-3.4c.5-.9,1.2-1.6,2.1-2.1.9-.5,1.9-.7,3-.7s1.9.2,2.6.6c.7.4,1.2.9,1.6,1.5.4.6.6,1.4.7,2.2,0,.8,0,1.6-.1,2.4-.3.1-.8.2-1.4.2-.6,0-1.2.1-1.9.1-.7,0-1.4,0-2,0s-1.3,0-1.8,0c.1.6.3,1.2.6,1.5.3.4.7.6,1.1.8.4.2.9.2,1.4.2s1.1,0,1.7-.2c.6-.1,1.1-.2,1.6-.4l.5,2.3ZM102.1,114.1c-.3,0-.6,0-1,.2-.3.2-.6.4-.8.8-.2.3-.4.8-.5,1.5h3.9c0-.5,0-.8,0-1.2,0-.4-.3-.7-.5-.9-.3-.2-.6-.4-1.1-.4ZM122.8,121.4v2.3h-4.9l-.2-1.4c-.6.5-1.2,1-1.9,1.2-.7.3-1.4.4-2.1.4-1.1,0-1.9-.3-2.6-.9-.6-.6-1-1.6-1-2.9v-5.3h-1.7v-2.3l5.3-1v7.6c0,.6,0,1.1.3,1.4.2.3.6.5,1.2.5s.7,0,1.1-.2c.4-.1.7-.3,1.1-.6v-5.4h-1.7v-2.3l5.3-1v9.6l1.8.2ZM59.4,143.9v2.3h-5l-.2-1.2c-.4.5-.8.9-1.4,1.1-.6.3-1.2.4-1.8.4s-1.1-.1-1.7-.3c-.6-.2-1.1-.6-1.5-1-.5-.5-.9-1.1-1.2-1.9-.3-.8-.4-1.7-.4-2.8s.2-2.1.5-2.9c.3-.8.8-1.4,1.3-1.9.5-.5,1.1-.9,1.8-1.1.6-.3,1.3-.4,1.9-.4s.9,0,1.3.2c.4.1.7.3,1.1.5v-2.8h-1.8v-2.1l5.4-1v14.8l1.7.2ZM49.9,140.3c0,1.2.2,2,.6,2.5.4.5.9.7,1.5.7s.9,0,1.2-.3c.3-.2.6-.4.8-.5v-5.4c-.2,0-.5-.2-.8-.2-.3,0-.6-.1-.9-.1-.7,0-1.3.3-1.8.8-.4.5-.6,1.4-.6,2.6ZM72.7,143.9v2.3h-4.6l-.3-.9c-.5.4-1.1.6-1.7.9-.6.2-1.2.3-1.8.3-1,0-1.9-.3-2.6-.9-.7-.6-1-1.4-1-2.4s.5-2,1.4-2.6c.9-.6,2.3-.9,4.1-1h1.1c0-.2,0-.3,0-.4,0-.1,0-.3,0-.4,0-.4-.2-.7-.3-1-.2-.3-.4-.5-.7-.6-.3-.1-.6-.2-1.1-.2s0,0-.1,0h-.1c-.1,0-.3,0-.5,0-.2,0-.4,0-.6,0v1.4h-2.2l-.2-3.6c.9-.3,1.7-.5,2.4-.6.7-.2,1.5-.2,2.3-.2s2,.2,2.6.5c.7.3,1.2.8,1.5,1.4.3.6.5,1.5.5,2.5v.3c0,.1,0,.2,0,.4v4.6l1.7.2ZM65.6,144.1c.3,0,.6,0,.9-.1.3,0,.6-.2.8-.3v-2.2h-1.3c-.7,0-1.2.1-1.5.4-.3.2-.5.6-.5,1s.1.7.4.9c.3.2.6.3,1.1.3ZM100.2,143.9v2.3h-5.4v-6.8c0-.6,0-1-.1-1.3,0-.3-.2-.6-.4-.7-.2-.2-.5-.2-.9-.2s-.7,0-1,.2c-.3.1-.7.3-1.1.5,0,.1,0,.3,0,.4v5.6l1.6.2v2.3h-6.4v-2.3h1.1v-4.7c0-.2,0-.4,0-.6,0-.4,0-.7-.2-.9,0-.2-.2-.4-.4-.5-.2-.1-.4-.2-.8-.2s-.7,0-1,.2c-.3.1-.7.3-1.1.5v6h1.1v2.4h-6.5v-2.3l1.8-.2v-6.4h-1.8v-2.3l5.3-1v1.5c.5-.4,1-.8,1.5-1,.6-.3,1.1-.4,1.7-.5.2,0,.5,0,.7,0,.7,0,1.2.2,1.7.5.5.3.9.7,1.2,1.2.6-.6,1.2-1,1.9-1.3.7-.3,1.4-.5,2.1-.5s1.3.1,1.8.4c.5.3,1,.7,1.3,1.2.3.5.5,1.2.5,2.1v5.8l1.8.2ZM111.9,145.5c-.3.2-.7.3-1.2.5-.5.1-1,.2-1.5.3-.5,0-1.1.1-1.6.1-1.2,0-2.3-.2-3.2-.7-.9-.5-1.6-1.2-2.2-2.2-.5-.9-.7-2-.7-3.3s.3-2.4.8-3.4c.5-.9,1.2-1.6,2.1-2.1.9-.5,1.9-.7,3-.7s1.9.2,2.6.6c.7.4,1.2.9,1.6,1.5.4.6.6,1.4.7,2.2,0,.8,0,1.6-.1,2.4-.3.1-.8.2-1.4.2-.6,0-1.2.1-1.9.1-.7,0-1.4,0-2,0s-1.3,0-1.8,0c.1.6.3,1.2.6,1.5.3.4.7.6,1.1.8.4.2.9.2,1.4.2s1.1,0,1.7-.2c.6-.1,1.1-.2,1.6-.4l.5,2.3ZM107.2,136.6c-.3,0-.6,0-1,.2-.3.2-.6.4-.8.8-.2.3-.4.8-.5,1.5h3.9c0-.5,0-.8,0-1.2,0-.4-.3-.7-.5-.9-.3-.2-.6-.4-1.1-.4ZM124,145.8c-.5.2-1.1.3-1.8.4-.7.1-1.3.2-1.9.2-1.3,0-2.4-.2-3.4-.7-.9-.5-1.6-1.2-2.1-2.2-.5-.9-.7-2-.7-3.2s.2-2.3.7-3.3c.5-1,1.2-1.7,2.1-2.2.9-.5,2-.8,3.3-.8s1.2,0,1.7.2c.6,0,1.2.3,1.8.5v4.1h-2.4v-2.1c-.2,0-.3,0-.5,0-.1,0-.2,0-.3,0-1,0-1.7.3-2.1,1-.4.6-.6,1.5-.6,2.5s.2,1.9.7,2.6c.5.6,1.3,1,2.4,1s.8,0,1.2-.1.9-.2,1.3-.3l.4,2.5ZM137.7,143.9v2.3h-4.6l-.3-.9c-.5.4-1.1.6-1.7.9-.6.2-1.2.3-1.8.3-1,0-1.9-.3-2.6-.9-.7-.6-1-1.4-1-2.4s.5-2,1.4-2.6c.9-.6,2.3-.9,4.1-1h1.1c0-.2,0-.3,0-.4,0-.1,0-.3,0-.4,0-.4-.2-.7-.3-1-.2-.3-.4-.5-.7-.6-.3-.1-.6-.2-1.1-.2s0,0-.1,0h-.1c-.1,0-.3,0-.5,0-.2,0-.4,0-.6,0v1.4h-2.2l-.2-3.6c.9-.3,1.7-.5,2.4-.6.7-.2,1.5-.2,2.3-.2s2,.2,2.6.5c.7.3,1.2.8,1.5,1.4.3.6.5,1.5.5,2.5v.3c0,.1,0,.2,0,.4v4.6l1.7.2ZM130.7,144.1c.3,0,.6,0,.9-.1.3,0,.6-.2.8-.3v-2.2h-1.3c-.7,0-1.2.1-1.5.4-.3.2-.5.6-.5,1s.1.7.4.9c.3.2.6.3,1.1.3ZM132.3,133l-1-2-1.1,2h-2.7l2.2-3.7h3.2l2.3,3.7h-2.9ZM153.4,143.9v2.3h-5.4v-6.8c0-.8-.1-1.4-.3-1.8-.2-.4-.6-.5-1.2-.5s-.7,0-1.1.2c-.4.1-.8.3-1.2.5v6l1.6.2v2.3h-7v-2.3l1.8-.2v-6.4h-1.8v-2.3l5.3-1v1.5c.6-.5,1.2-.9,1.9-1.1.7-.3,1.4-.4,2.1-.4s1.4.1,1.9.4c.6.3,1,.7,1.3,1.2.3.5.5,1.2.5,2.1v5.8l1.8.2ZM158.1,132.9c-.6,0-1.1-.2-1.5-.6-.4-.4-.6-.8-.6-1.4s.2-1,.6-1.4c.4-.4.9-.6,1.5-.6s1.1.2,1.5.6c.4.4.6.8.6,1.4s-.2,1-.6,1.4c-.4.4-.9.6-1.5.6ZM161.7,143.9v2.3h-7.2v-2.3l1.8-.2v-6.4h-1.8v-2.3l5.4-1v9.6l1.8.2ZM172.7,145.8c-.5.2-1.1.3-1.8.4-.7.1-1.3.2-1.9.2-1.3,0-2.4-.2-3.4-.7-.9-.5-1.6-1.2-2.1-2.2-.5-.9-.7-2-.7-3.2s.2-2.3.7-3.3c.5-1,1.2-1.7,2.1-2.2.9-.5,2-.8,3.3-.8s1.2,0,1.7.2c.6,0,1.2.3,1.8.5v4.1h-2.4v-2.1c-.2,0-.3,0-.5,0-.1,0-.2,0-.3,0-1,0-1.7.3-2.1,1-.4.6-.6,1.5-.6,2.5s.2,1.9.7,2.6c.5.6,1.3,1,2.4,1s.8,0,1.2-.1.9-.2,1.3-.3l.4,2.5ZM186.5,143.9v2.3h-4.6l-.3-.9c-.5.4-1.1.6-1.7.9-.6.2-1.2.3-1.8.3-1,0-1.9-.3-2.6-.9-.7-.6-1-1.4-1-2.4s.5-2,1.4-2.6c.9-.6,2.3-.9,4.1-1h1.1c0-.2,0-.3,0-.4,0-.1,0-.3,0-.4,0-.4-.2-.7-.3-1-.2-.3-.4-.5-.7-.6-.3-.1-.6-.2-1.1-.2s0,0-.1,0h-.1c-.1,0-.3,0-.5,0-.2,0-.4,0-.6,0v1.4h-2.2l-.2-3.6c.9-.3,1.7-.5,2.4-.6.7-.2,1.5-.2,2.3-.2s2,.2,2.6.5c.7.3,1.2.8,1.5,1.4.3.6.5,1.5.5,2.5v.3c0,.1,0,.2,0,.4v4.6l1.7.2ZM179.5,144.1c.3,0,.6,0,.9-.1.3,0,.6-.2.8-.3v-2.2h-1.3c-.7,0-1.2.1-1.5.4-.3.2-.5.6-.5,1s.1.7.4.9c.3.2.6.3,1.1.3ZM53.1,172.1v2.3h-7.5v-2.3l1.8-.2v-12h-1.8v-2.3l5.3-1v1.2c.4-.3,1-.6,1.6-.8.6-.3,1.3-.4,2-.4s1.7.3,2.4.8c.6.5,1.1,1.2,1.5,2.1.3.9.5,2,.5,3.2s-.1,1.9-.4,2.7c-.2.7-.6,1.3-1,1.8-.4.5-.9.8-1.4,1.1-.5.3-1,.4-1.5.5-.5.1-.9.2-1.3.2s-.9,0-1.3-.2c-.4-.1-.7-.3-1-.5v3.5l2,.2ZM53.1,159.4c-.3,0-.7,0-1,.1-.3,0-.7.2-1,.3v5.4c.2.2.5.4.8.5.3.1.7.2,1.1.2s.8-.1,1.1-.3c.3-.2.6-.6.7-1,.2-.5.3-1.2.3-2s-.2-1.9-.5-2.4c-.3-.5-.9-.8-1.6-.8ZM66.9,169c-1.2,0-2.3-.2-3.2-.7-.9-.5-1.6-1.2-2.1-2.2s-.7-2-.7-3.3.2-2.4.7-3.3c.5-.9,1.2-1.6,2.1-2.1.9-.5,2-.8,3.2-.8s2.3.3,3.1.8c.9.5,1.6,1.2,2.1,2.2.5.9.7,2,.7,3.3s-.2,2.3-.7,3.3c-.5.9-1.2,1.6-2.1,2.1-.9.5-1.9.7-3.2.7ZM66.9,166.2c.7,0,1.3-.3,1.7-.9.4-.6.6-1.4.6-2.5s0-1.3-.3-1.8c-.2-.5-.4-.9-.8-1.2-.3-.3-.7-.4-1.2-.4s-.9.1-1.2.4c-.3.3-.6.7-.8,1.2-.2.5-.3,1.1-.3,1.8,0,1.1.2,1.9.6,2.5.4.6,1,.9,1.7.9ZM81.7,172.1v2.3h-7.5v-2.3l1.8-.2v-12h-1.8v-2.3l5.3-1v1.2c.4-.3,1-.6,1.6-.8.6-.3,1.3-.4,2-.4s1.7.3,2.4.8c.6.5,1.1,1.2,1.5,2.1.3.9.5,2,.5,3.2s-.1,1.9-.4,2.7c-.2.7-.6,1.3-1,1.8-.4.5-.9.8-1.4,1.1-.5.3-1,.4-1.5.5-.5.1-.9.2-1.3.2s-.9,0-1.3-.2c-.4-.1-.7-.3-1-.5v3.5l2,.2ZM81.7,159.4c-.3,0-.7,0-1,.1-.3,0-.7.2-1,.3v5.4c.2.2.5.4.8.5.3.1.7.2,1.1.2s.8-.1,1.1-.3c.3-.2.6-.6.7-1,.2-.5.3-1.2.3-2s-.2-1.9-.5-2.4c-.3-.5-.9-.8-1.6-.8ZM103.3,166.4v2.3h-4.9l-.2-1.4c-.6.5-1.2,1-1.9,1.2-.7.3-1.4.4-2.1.4-1.1,0-1.9-.3-2.6-.9-.6-.6-1-1.6-1-2.9v-5.3h-1.7v-2.3l5.3-1v7.6c0,.6,0,1.1.3,1.4.2.3.6.5,1.2.5s.7,0,1.1-.2c.4-.1.7-.3,1.1-.6v-5.4h-1.7v-2.3l5.3-1v9.6l1.8.2ZM111.5,166.4v2.3h-7.2v-2.3l1.7-.2v-11.5h-1.8v-2.3l5.4-1v14.8l1.7.2ZM124.6,166.4v2.3h-4.6l-.3-.9c-.5.4-1.1.6-1.7.9-.6.2-1.2.3-1.8.3-1,0-1.9-.3-2.6-.9-.7-.6-1-1.4-1-2.4s.5-2,1.4-2.6c.9-.6,2.3-.9,4.1-1h1.1c0-.2,0-.3,0-.4,0-.1,0-.3,0-.4,0-.4-.2-.7-.3-1-.2-.3-.4-.5-.7-.6-.3-.1-.6-.2-1.1-.2s0,0-.1,0h-.1c-.1,0-.3,0-.5,0-.2,0-.4,0-.6,0v1.4h-2.2l-.2-3.6c.9-.3,1.7-.5,2.4-.6.7-.2,1.5-.2,2.3-.2s2,.2,2.6.5c.7.3,1.2.8,1.5,1.4.3.6.5,1.5.5,2.5v.3c0,.1,0,.2,0,.4v4.6l1.7.2ZM117.6,166.6c.3,0,.6,0,.9-.1.3,0,.6-.2.8-.3v-2.2h-1.3c-.7,0-1.2.1-1.5.4-.3.2-.5.6-.5,1s.1.7.4.9c.3.2.6.3,1.1.3ZM133.5,166.4v2.3h-7.9v-2.3l1.8-.2v-6.4h-1.8v-2.3l5.3-1v1.9c.5-.6,1.2-1.1,1.9-1.5.7-.3,1.5-.5,2.2-.5v3.3c-.9,0-1.6,0-2.2.1-.6,0-1.2.2-1.7.4v5.7l2.5.2ZM156.1,166.4v2.3h-5.4v-6.8c0-.8-.1-1.4-.3-1.8-.2-.4-.6-.5-1.2-.5s-.7,0-1.1.2c-.4.1-.8.3-1.2.5v6l1.6.2v2.3h-7v-2.3l1.8-.2v-6.4h-1.8v-2.3l5.3-1v1.5c.6-.5,1.2-.9,1.9-1.1.7-.3,1.4-.4,2.1-.4s1.4.1,1.9.4c.6.3,1,.7,1.3,1.2.3.5.5,1.2.5,2.1v5.8l1.8.2ZM163.3,169c-1.2,0-2.3-.2-3.2-.7-.9-.5-1.6-1.2-2.1-2.2s-.7-2-.7-3.3.2-2.4.7-3.3c.5-.9,1.2-1.6,2.1-2.1.9-.5,2-.8,3.2-.8s2.3.3,3.1.8c.9.5,1.6,1.2,2.1,2.2.5.9.7,2,.7,3.3s-.2,2.3-.7,3.3c-.5.9-1.2,1.6-2.1,2.1-.9.5-1.9.7-3.2.7ZM163.3,166.2c.7,0,1.3-.3,1.7-.9.4-.6.6-1.4.6-2.5s0-1.3-.3-1.8c-.2-.5-.4-.9-.8-1.2-.3-.3-.7-.4-1.2-.4s-.9.1-1.2.4c-.3.3-.6.7-.8,1.2-.2.5-.3,1.1-.3,1.8,0,1.1.2,1.9.6,2.5.4.6,1,.9,1.7.9ZM189.4,167.8c-.6.4-1.3.7-2.2.9-.8.2-1.7.3-2.6.3s-2.3-.2-3.4-.5c-1-.4-1.9-.9-2.6-1.6-.7-.7-1.3-1.6-1.7-2.6-.4-1-.6-2.2-.6-3.4s.2-2.4.6-3.4c.4-1,1-1.9,1.7-2.6.7-.7,1.6-1.3,2.6-1.6,1-.4,2.1-.6,3.4-.6s1.7.1,2.5.3c.8.2,1.6.5,2.2.8l-.3,4.8h-2.5v-2.6c-.4,0-.6,0-.9-.1-.2,0-.4,0-.7,0-.7,0-1.3,0-1.9.3-.6.2-1.1.5-1.5.9-.4.4-.8.9-1,1.5-.2.6-.4,1.4-.4,2.2s.1,1.7.4,2.3c.2.6.6,1.1,1,1.5.4.4.9.7,1.5.8.6.2,1.2.3,1.9.3s1.1,0,1.8-.2,1.3-.3,1.9-.6l.7,2.9ZM201.6,168c-.3.2-.7.3-1.2.5-.5.1-1,.2-1.5.3-.5,0-1.1.1-1.6.1-1.2,0-2.3-.2-3.2-.7-.9-.5-1.6-1.2-2.2-2.2-.5-.9-.7-2-.7-3.3s.3-2.4.8-3.4c.5-.9,1.2-1.6,2.1-2.1.9-.5,1.9-.7,3-.7s1.9.2,2.6.6c.7.4,1.2.9,1.6,1.5.4.6.6,1.4.7,2.2,0,.8,0,1.6-.1,2.4-.3.1-.8.2-1.4.2-.6,0-1.2.1-1.9.1-.7,0-1.4,0-2,0s-1.3,0-1.8,0c.1.6.3,1.2.6,1.5.3.4.7.6,1.1.8s.9.2,1.4.2,1.1,0,1.7-.2c.6-.1,1.1-.2,1.6-.4l.5,2.3ZM196.9,159.1c-.3,0-.6,0-1,.2-.3.2-.6.4-.8.8-.2.3-.4.8-.5,1.5h3.9c0-.5,0-.8,0-1.2,0-.4-.3-.7-.5-.9-.3-.2-.6-.4-1.1-.4ZM211.5,166.4v2.3h-7.9v-2.3l1.8-.2v-6.4h-1.8v-2.3l5.3-1v1.9c.5-.6,1.2-1.1,1.9-1.5.7-.3,1.5-.5,2.2-.5v3.3c-.9,0-1.6,0-2.2.1s-1.2.2-1.7.4v5.7l2.5.2ZM222.2,166.4v2.3h-7.9v-2.3l1.8-.2v-6.4h-1.8v-2.3l5.3-1v1.9c.5-.6,1.2-1.1,1.9-1.5.7-.3,1.5-.5,2.2-.5v3.3c-.9,0-1.6,0-2.2.1-.6,0-1.2.2-1.7.4v5.7l2.5.2ZM236.8,166.4v2.3h-4.6l-.3-.9c-.5.4-1.1.6-1.7.9-.6.2-1.2.3-1.8.3-1,0-1.9-.3-2.6-.9-.7-.6-1-1.4-1-2.4s.5-2,1.4-2.6c.9-.6,2.3-.9,4.1-1h1.1c0-.2,0-.3,0-.4,0-.1,0-.3,0-.4,0-.4-.2-.7-.3-1-.2-.3-.4-.5-.7-.6-.3-.1-.6-.2-1.1-.2s0,0-.1,0h-.1c-.1,0-.3,0-.5,0-.2,0-.4,0-.6,0v1.4h-2.2l-.2-3.6c.9-.3,1.7-.5,2.4-.6.7-.2,1.5-.2,2.3-.2s2,.2,2.6.5c.7.3,1.2.8,1.5,1.4.3.6.5,1.5.5,2.5v.3c0,.1,0,.2,0,.4v4.6l1.7.2ZM229.8,166.6c.3,0,.6,0,.9-.1.3,0,.6-.2.8-.3v-2.2h-1.3c-.7,0-1.2.1-1.5.4-.3.2-.5.6-.5,1s.1.7.4.9c.3.2.6.3,1.1.3ZM251.3,166.4v2.3h-5l-.2-1.2c-.4.5-.8.9-1.4,1.1-.6.3-1.2.4-1.8.4s-1.1-.1-1.7-.3c-.6-.2-1.1-.6-1.5-1-.5-.5-.9-1.1-1.2-1.9-.3-.8-.4-1.7-.4-2.8s.2-2.1.5-2.9c.3-.8.8-1.4,1.3-1.9.5-.5,1.1-.9,1.8-1.1.6-.3,1.3-.4,1.9-.4s.9,0,1.3.2c.4.1.7.3,1.1.5v-2.8h-1.8v-2.1l5.4-1v14.8l1.7.2ZM241.8,162.9c0,1.2.2,2,.6,2.5.4.5.9.7,1.5.7s.9,0,1.2-.3c.3-.2.6-.4.8-.5v-5.4c-.2,0-.5-.2-.8-.2-.3,0-.6-.1-.9-.1-.7,0-1.3.3-1.8.8-.4.5-.6,1.4-.6,2.6ZM258.7,169c-1.2,0-2.3-.2-3.2-.7-.9-.5-1.6-1.2-2.1-2.2-.5-.9-.7-2-.7-3.3s.2-2.4.7-3.3c.5-.9,1.2-1.6,2.1-2.1.9-.5,2-.8,3.2-.8s2.3.3,3.1.8c.9.5,1.6,1.2,2.1,2.2.5.9.7,2,.7,3.3s-.2,2.3-.7,3.3c-.5.9-1.2,1.6-2.1,2.1-.9.5-1.9.7-3.2.7ZM258.7,166.2c.7,0,1.3-.3,1.7-.9.4-.6.6-1.4.6-2.5s0-1.3-.3-1.8c-.2-.5-.4-.9-.8-1.2-.3-.3-.7-.4-1.2-.4s-.9.1-1.2.4c-.3.3-.6.7-.8,1.2-.2.5-.3,1.1-.3,1.8,0,1.1.2,1.9.6,2.5.4.6,1,.9,1.7.9Z"/>
      <path class="cls-2" d="M247.8,4l26.7,58-96.7,41.1-43.9-12.9-83.1,8.3L4.2,75.5,39.3,10.6l62,27.8,21.1-9.2,21.1-9.2,32.7,15.5L247.8,4Z"/>
      <path class="cls-5" d="M80,45.6l6.1.5,8.6,29.6-6.3,1.8-1.6-6.1-12.2-1.1-2.7,5.7-5.8-2.9,13.9-27.6h0ZM82.1,54.3l-5,10.7,8.1.7-3.1-11.4h0ZM85.8,32.2l5.9,1.2-4.6,9.4-5.6-1.2,4.4-9.4Z"/>
      <path class="cls-5" d="M103.8,52.7l11.7-2.5,9.9,7.5,3.4,11.3,6.8,2.2-1.3,5.5-8.3-2.6-3.4,5.4-11.7,2.5-9.9-7.4-3.5-11.9,6.5-10.1h0ZM116.1,71.8l1.3-5.5,4,1-1.9-5.5-6-5-6.2,1-3.1,5.5,2.6,7.4,6,5,6.2-1,1-1.8-3.9-1Z"/>
      <path class="cls-5" d="M186.9,82.1l-6.1,2.6-12-28.3,6.4-2.7,19.8,12.7-7.6-17.9,6.1-2.6,12,28.3-6.4,2.7-19.8-12.7,7.6,17.9Z"/>
      <path class="cls-5" d="M156,84.2l-6-2.1,8.9-26.2,6,2.1-8.9,26.2ZM164,55.3l-2.7-1-1.2-2.6,1-2.7,2.6-1.2,2.7,1,1.2,2.6-1,2.7-2.6,1.2h0Z"/>
      <path class="cls-5" d="M31.9,67l-6.1-3.1,14-27.4,7.6,3.9-3,23.8,17.5-16.3,7.6,3.9-14,27.4-6.1-3.1,8.6-16.8-14.9,13.6-5.1-2.6,2.4-20-8.6,16.8Z"/>
      <path class="cls-5" d="M149.4,37.1l6.8.2-1.1,18.1-3.7,9.8-9.8,3.3-9.6-4-3.1-9.7,1.1-18.4,6.8.2-1.1,17.8,1.4,5.9,4.6,1.9,4.6-1.6,1.9-5.8,1.1-17.8h0Z"/>
      <path class="cls-5" d="M199.8,48.8l3.9-4.7,29.2,9.8-2.1,6.2-5.9-2.1-7.9,9.4,3.2,5.4-5.7,3.1-14.7-27.2ZM208.2,52.1l5.9,10.2,5.2-6.2-11.1-4Z"/>
      <path class="cls-5" d="M237.4,54.8l4.5,1.1,3.8-2.2,2.1-3-.8-3-.8-1.2-2.9.5-6.8,2.6-6.4.4-3.7-2.9-1.6-7.8,4.7-6.4,8.3-3.3,4.6,2.5-2.9,5.6-2.8-1.4-3.5,1.3-2.2,2.6.3,2.4,1.2.9h1.8c0-.1,3.2-1.2,3.2-1.2l4.2-1.7,6.4-.8,3.8,2.9,2.3,7.9-4.4,7.4-8.3,4.6-6.4-1.6,2.1-6.2Z"/>
    </g>
  </g>
</svg>